ISO-10303-21;
HEADER;
/* Generated by software containing ST-Developer
 * from STEP Tools, Inc. (www.steptools.com) 
 */

FILE_DESCRIPTION(
/* description */ (''),
/* implementation_level */ '2;1');

FILE_NAME(
/* name */ 'T9 KeyPad BaseBoard.step',
/* time_stamp */ '2026-08-19T16:51:15-07:00',
/* author */ (''),
/* organization */ (''),
/* preprocessor_version */ 'ST-DEVELOPER v20.1',
/* originating_system */ 'Autodesk Translation Framework v15.8.0.0',
/* authorisation */ '');

FILE_SCHEMA (('AUTOMOTIVE_DESIGN { 1 0 10303 214 3 1 1 }'));
ENDSEC;

DATA;
#10=MECHANICAL_DESIGN_GEOMETRIC_PRESENTATION_REPRESENTATION('',(#13),#1547);
#11=SHAPE_REPRESENTATION_RELATIONSHIP('SRR','None',#1554,#12);
#12=ADVANCED_BREP_SHAPE_REPRESENTATION('',(#14),#1546);
#13=STYLED_ITEM('',(#1564),#14);
#14=MANIFOLD_SOLID_BREP('BaseBoard',#975);
#15=FACE_BOUND('',#124,.T.);
#16=FACE_BOUND('',#125,.T.);
#17=FACE_BOUND('',#126,.T.);
#18=FACE_BOUND('',#127,.T.);
#19=FACE_BOUND('',#128,.T.);
#20=FACE_BOUND('',#129,.T.);
#21=FACE_BOUND('',#130,.T.);
#22=FACE_BOUND('',#131,.T.);
#23=FACE_BOUND('',#132,.T.);
#24=FACE_BOUND('',#176,.T.);
#25=FACE_BOUND('',#177,.T.);
#26=FACE_BOUND('',#178,.T.);
#27=FACE_BOUND('',#179,.T.);
#28=FACE_BOUND('',#180,.T.);
#29=FACE_BOUND('',#181,.T.);
#30=FACE_BOUND('',#182,.T.);
#31=FACE_BOUND('',#183,.T.);
#32=FACE_BOUND('',#184,.T.);
#33=PLANE('',#992);
#34=PLANE('',#993);
#35=PLANE('',#999);
#36=PLANE('',#1004);
#37=PLANE('',#1005);
#38=PLANE('',#1006);
#39=PLANE('',#1007);
#40=PLANE('',#1008);
#41=PLANE('',#1009);
#42=PLANE('',#1010);
#43=PLANE('',#1011);
#44=PLANE('',#1012);
#45=PLANE('',#1013);
#46=PLANE('',#1014);
#47=PLANE('',#1015);
#48=PLANE('',#1016);
#49=PLANE('',#1017);
#50=PLANE('',#1018);
#51=PLANE('',#1019);
#52=PLANE('',#1020);
#53=PLANE('',#1021);
#54=PLANE('',#1022);
#55=PLANE('',#1023);
#56=PLANE('',#1024);
#57=PLANE('',#1025);
#58=PLANE('',#1026);
#59=PLANE('',#1027);
#60=PLANE('',#1028);
#61=PLANE('',#1029);
#62=PLANE('',#1030);
#63=PLANE('',#1031);
#64=PLANE('',#1032);
#65=PLANE('',#1033);
#66=PLANE('',#1034);
#67=PLANE('',#1035);
#68=PLANE('',#1036);
#69=PLANE('',#1037);
#70=PLANE('',#1038);
#71=PLANE('',#1039);
#72=PLANE('',#1040);
#73=PLANE('',#1041);
#74=PLANE('',#1042);
#75=FACE_OUTER_BOUND('',#121,.T.);
#76=FACE_OUTER_BOUND('',#122,.T.);
#77=FACE_OUTER_BOUND('',#123,.T.);
#78=FACE_OUTER_BOUND('',#133,.T.);
#79=FACE_OUTER_BOUND('',#134,.T.);
#80=FACE_OUTER_BOUND('',#135,.T.);
#81=FACE_OUTER_BOUND('',#136,.T.);
#82=FACE_OUTER_BOUND('',#137,.T.);
#83=FACE_OUTER_BOUND('',#138,.T.);
#84=FACE_OUTER_BOUND('',#139,.T.);
#85=FACE_OUTER_BOUND('',#140,.T.);
#86=FACE_OUTER_BOUND('',#141,.T.);
#87=FACE_OUTER_BOUND('',#142,.T.);
#88=FACE_OUTER_BOUND('',#143,.T.);
#89=FACE_OUTER_BOUND('',#144,.T.);
#90=FACE_OUTER_BOUND('',#145,.T.);
#91=FACE_OUTER_BOUND('',#146,.T.);
#92=FACE_OUTER_BOUND('',#147,.T.);
#93=FACE_OUTER_BOUND('',#148,.T.);
#94=FACE_OUTER_BOUND('',#149,.T.);
#95=FACE_OUTER_BOUND('',#150,.T.);
#96=FACE_OUTER_BOUND('',#151,.T.);
#97=FACE_OUTER_BOUND('',#152,.T.);
#98=FACE_OUTER_BOUND('',#153,.T.);
#99=FACE_OUTER_BOUND('',#154,.T.);
#100=FACE_OUTER_BOUND('',#155,.T.);
#101=FACE_OUTER_BOUND('',#156,.T.);
#102=FACE_OUTER_BOUND('',#157,.T.);
#103=FACE_OUTER_BOUND('',#158,.T.);
#104=FACE_OUTER_BOUND('',#159,.T.);
#105=FACE_OUTER_BOUND('',#160,.T.);
#106=FACE_OUTER_BOUND('',#161,.T.);
#107=FACE_OUTER_BOUND('',#162,.T.);
#108=FACE_OUTER_BOUND('',#163,.T.);
#109=FACE_OUTER_BOUND('',#164,.T.);
#110=FACE_OUTER_BOUND('',#165,.T.);
#111=FACE_OUTER_BOUND('',#166,.T.);
#112=FACE_OUTER_BOUND('',#167,.T.);
#113=FACE_OUTER_BOUND('',#168,.T.);
#114=FACE_OUTER_BOUND('',#169,.T.);
#115=FACE_OUTER_BOUND('',#170,.T.);
#116=FACE_OUTER_BOUND('',#171,.T.);
#117=FACE_OUTER_BOUND('',#172,.T.);
#118=FACE_OUTER_BOUND('',#173,.T.);
#119=FACE_OUTER_BOUND('',#174,.T.);
#120=FACE_OUTER_BOUND('',#175,.T.);
#121=EDGE_LOOP('',(#661,#662,#663,#664));
#122=EDGE_LOOP('',(#665,#666,#667,#668));
#123=EDGE_LOOP('',(#669,#670,#671,#672,#673,#674,#675,#676));
#124=EDGE_LOOP('',(#677,#678,#679,#680));
#125=EDGE_LOOP('',(#681,#682,#683,#684));
#126=EDGE_LOOP('',(#685,#686,#687,#688));
#127=EDGE_LOOP('',(#689,#690,#691,#692));
#128=EDGE_LOOP('',(#693,#694,#695,#696));
#129=EDGE_LOOP('',(#697,#698,#699,#700));
#130=EDGE_LOOP('',(#701,#702,#703,#704));
#131=EDGE_LOOP('',(#705,#706,#707,#708));
#132=EDGE_LOOP('',(#709,#710,#711,#712));
#133=EDGE_LOOP('',(#713,#714,#715,#716));
#134=EDGE_LOOP('',(#717,#718,#719,#720));
#135=EDGE_LOOP('',(#721,#722,#723,#724));
#136=EDGE_LOOP('',(#725,#726,#727,#728));
#137=EDGE_LOOP('',(#729,#730,#731,#732));
#138=EDGE_LOOP('',(#733,#734,#735,#736));
#139=EDGE_LOOP('',(#737,#738,#739,#740));
#140=EDGE_LOOP('',(#741,#742,#743,#744));
#141=EDGE_LOOP('',(#745,#746,#747,#748));
#142=EDGE_LOOP('',(#749,#750,#751,#752));
#143=EDGE_LOOP('',(#753,#754,#755,#756));
#144=EDGE_LOOP('',(#757,#758,#759,#760));
#145=EDGE_LOOP('',(#761,#762,#763,#764));
#146=EDGE_LOOP('',(#765,#766,#767,#768));
#147=EDGE_LOOP('',(#769,#770,#771,#772));
#148=EDGE_LOOP('',(#773,#774,#775,#776));
#149=EDGE_LOOP('',(#777,#778,#779,#780));
#150=EDGE_LOOP('',(#781,#782,#783,#784));
#151=EDGE_LOOP('',(#785,#786,#787,#788));
#152=EDGE_LOOP('',(#789,#790,#791,#792));
#153=EDGE_LOOP('',(#793,#794,#795,#796));
#154=EDGE_LOOP('',(#797,#798,#799,#800));
#155=EDGE_LOOP('',(#801,#802,#803,#804));
#156=EDGE_LOOP('',(#805,#806,#807,#808));
#157=EDGE_LOOP('',(#809,#810,#811,#812));
#158=EDGE_LOOP('',(#813,#814,#815,#816));
#159=EDGE_LOOP('',(#817,#818,#819,#820));
#160=EDGE_LOOP('',(#821,#822,#823,#824));
#161=EDGE_LOOP('',(#825,#826,#827,#828));
#162=EDGE_LOOP('',(#829,#830,#831,#832));
#163=EDGE_LOOP('',(#833,#834,#835,#836));
#164=EDGE_LOOP('',(#837,#838,#839,#840));
#165=EDGE_LOOP('',(#841,#842,#843,#844));
#166=EDGE_LOOP('',(#845,#846,#847,#848));
#167=EDGE_LOOP('',(#849,#850,#851,#852));
#168=EDGE_LOOP('',(#853,#854,#855,#856));
#169=EDGE_LOOP('',(#857,#858,#859,#860));
#170=EDGE_LOOP('',(#861,#862,#863,#864));
#171=EDGE_LOOP('',(#865,#866,#867,#868));
#172=EDGE_LOOP('',(#869,#870,#871,#872));
#173=EDGE_LOOP('',(#873,#874,#875,#876));
#174=EDGE_LOOP('',(#877,#878,#879,#880));
#175=EDGE_LOOP('',(#881,#882,#883,#884,#885,#886,#887,#888));
#176=EDGE_LOOP('',(#889,#890,#891,#892));
#177=EDGE_LOOP('',(#893,#894,#895,#896));
#178=EDGE_LOOP('',(#897,#898,#899,#900));
#179=EDGE_LOOP('',(#901,#902,#903,#904));
#180=EDGE_LOOP('',(#905,#906,#907,#908));
#181=EDGE_LOOP('',(#909,#910,#911,#912));
#182=EDGE_LOOP('',(#913,#914,#915,#916));
#183=EDGE_LOOP('',(#917,#918,#919,#920));
#184=EDGE_LOOP('',(#921,#922,#923,#924));
#185=LINE('',#1283,#309);
#186=LINE('',#1286,#310);
#187=LINE('',#1289,#311);
#188=LINE('',#1291,#312);
#189=LINE('',#1292,#313);
#190=LINE('',#1295,#314);
#191=LINE('',#1299,#315);
#192=LINE('',#1303,#316);
#193=LINE('',#1307,#317);
#194=LINE('',#1309,#318);
#195=LINE('',#1311,#319);
#196=LINE('',#1312,#320);
#197=LINE('',#1315,#321);
#198=LINE('',#1317,#322);
#199=LINE('',#1319,#323);
#200=LINE('',#1320,#324);
#201=LINE('',#1323,#325);
#202=LINE('',#1325,#326);
#203=LINE('',#1327,#327);
#204=LINE('',#1328,#328);
#205=LINE('',#1331,#329);
#206=LINE('',#1333,#330);
#207=LINE('',#1335,#331);
#208=LINE('',#1336,#332);
#209=LINE('',#1339,#333);
#210=LINE('',#1341,#334);
#211=LINE('',#1343,#335);
#212=LINE('',#1344,#336);
#213=LINE('',#1347,#337);
#214=LINE('',#1349,#338);
#215=LINE('',#1351,#339);
#216=LINE('',#1352,#340);
#217=LINE('',#1355,#341);
#218=LINE('',#1357,#342);
#219=LINE('',#1359,#343);
#220=LINE('',#1360,#344);
#221=LINE('',#1363,#345);
#222=LINE('',#1365,#346);
#223=LINE('',#1367,#347);
#224=LINE('',#1368,#348);
#225=LINE('',#1371,#349);
#226=LINE('',#1373,#350);
#227=LINE('',#1375,#351);
#228=LINE('',#1376,#352);
#229=LINE('',#1379,#353);
#230=LINE('',#1382,#354);
#231=LINE('',#1385,#355);
#232=LINE('',#1386,#356);
#233=LINE('',#1391,#357);
#234=LINE('',#1394,#358);
#235=LINE('',#1396,#359);
#236=LINE('',#1400,#360);
#237=LINE('',#1401,#361);
#238=LINE('',#1402,#362);
#239=LINE('',#1405,#363);
#240=LINE('',#1406,#364);
#241=LINE('',#1409,#365);
#242=LINE('',#1410,#366);
#243=LINE('',#1412,#367);
#244=LINE('',#1416,#368);
#245=LINE('',#1417,#369);
#246=LINE('',#1418,#370);
#247=LINE('',#1421,#371);
#248=LINE('',#1422,#372);
#249=LINE('',#1425,#373);
#250=LINE('',#1426,#374);
#251=LINE('',#1428,#375);
#252=LINE('',#1432,#376);
#253=LINE('',#1433,#377);
#254=LINE('',#1434,#378);
#255=LINE('',#1437,#379);
#256=LINE('',#1438,#380);
#257=LINE('',#1441,#381);
#258=LINE('',#1442,#382);
#259=LINE('',#1444,#383);
#260=LINE('',#1448,#384);
#261=LINE('',#1449,#385);
#262=LINE('',#1450,#386);
#263=LINE('',#1453,#387);
#264=LINE('',#1454,#388);
#265=LINE('',#1457,#389);
#266=LINE('',#1458,#390);
#267=LINE('',#1460,#391);
#268=LINE('',#1464,#392);
#269=LINE('',#1465,#393);
#270=LINE('',#1466,#394);
#271=LINE('',#1469,#395);
#272=LINE('',#1470,#396);
#273=LINE('',#1473,#397);
#274=LINE('',#1474,#398);
#275=LINE('',#1476,#399);
#276=LINE('',#1480,#400);
#277=LINE('',#1481,#401);
#278=LINE('',#1482,#402);
#279=LINE('',#1485,#403);
#280=LINE('',#1486,#404);
#281=LINE('',#1489,#405);
#282=LINE('',#1490,#406);
#283=LINE('',#1492,#407);
#284=LINE('',#1496,#408);
#285=LINE('',#1497,#409);
#286=LINE('',#1498,#410);
#287=LINE('',#1501,#411);
#288=LINE('',#1502,#412);
#289=LINE('',#1505,#413);
#290=LINE('',#1506,#414);
#291=LINE('',#1508,#415);
#292=LINE('',#1512,#416);
#293=LINE('',#1513,#417);
#294=LINE('',#1514,#418);
#295=LINE('',#1517,#419);
#296=LINE('',#1518,#420);
#297=LINE('',#1521,#421);
#298=LINE('',#1522,#422);
#299=LINE('',#1524,#423);
#300=LINE('',#1528,#424);
#301=LINE('',#1529,#425);
#302=LINE('',#1530,#426);
#303=LINE('',#1533,#427);
#304=LINE('',#1534,#428);
#305=LINE('',#1537,#429);
#306=LINE('',#1538,#430);
#307=LINE('',#1540,#431);
#308=LINE('',#1542,#432);
#309=VECTOR('',#1049,10.);
#310=VECTOR('',#1052,10.);
#311=VECTOR('',#1055,10.);
#312=VECTOR('',#1056,10.);
#313=VECTOR('',#1057,10.);
#314=VECTOR('',#1060,10.);
#315=VECTOR('',#1063,10.);
#316=VECTOR('',#1066,10.);
#317=VECTOR('',#1069,10.);
#318=VECTOR('',#1070,10.);
#319=VECTOR('',#1071,10.);
#320=VECTOR('',#1072,10.);
#321=VECTOR('',#1073,10.);
#322=VECTOR('',#1074,10.);
#323=VECTOR('',#1075,10.);
#324=VECTOR('',#1076,10.);
#325=VECTOR('',#1077,10.);
#326=VECTOR('',#1078,10.);
#327=VECTOR('',#1079,10.);
#328=VECTOR('',#1080,10.);
#329=VECTOR('',#1081,10.);
#330=VECTOR('',#1082,10.);
#331=VECTOR('',#1083,10.);
#332=VECTOR('',#1084,10.);
#333=VECTOR('',#1085,10.);
#334=VECTOR('',#1086,10.);
#335=VECTOR('',#1087,10.);
#336=VECTOR('',#1088,10.);
#337=VECTOR('',#1089,10.);
#338=VECTOR('',#1090,10.);
#339=VECTOR('',#1091,10.);
#340=VECTOR('',#1092,10.);
#341=VECTOR('',#1093,10.);
#342=VECTOR('',#1094,10.);
#343=VECTOR('',#1095,10.);
#344=VECTOR('',#1096,10.);
#345=VECTOR('',#1097,10.);
#346=VECTOR('',#1098,10.);
#347=VECTOR('',#1099,10.);
#348=VECTOR('',#1100,10.);
#349=VECTOR('',#1101,10.);
#350=VECTOR('',#1102,10.);
#351=VECTOR('',#1103,10.);
#352=VECTOR('',#1104,10.);
#353=VECTOR('',#1107,10.);
#354=VECTOR('',#1110,10.);
#355=VECTOR('',#1113,10.);
#356=VECTOR('',#1114,10.);
#357=VECTOR('',#1121,10.);
#358=VECTOR('',#1124,10.);
#359=VECTOR('',#1127,10.);
#360=VECTOR('',#1130,10.);
#361=VECTOR('',#1131,10.);
#362=VECTOR('',#1132,10.);
#363=VECTOR('',#1135,10.);
#364=VECTOR('',#1136,10.);
#365=VECTOR('',#1139,10.);
#366=VECTOR('',#1140,10.);
#367=VECTOR('',#1143,10.);
#368=VECTOR('',#1146,10.);
#369=VECTOR('',#1147,10.);
#370=VECTOR('',#1148,10.);
#371=VECTOR('',#1151,10.);
#372=VECTOR('',#1152,10.);
#373=VECTOR('',#1155,10.);
#374=VECTOR('',#1156,10.);
#375=VECTOR('',#1159,10.);
#376=VECTOR('',#1162,10.);
#377=VECTOR('',#1163,10.);
#378=VECTOR('',#1164,10.);
#379=VECTOR('',#1167,10.);
#380=VECTOR('',#1168,10.);
#381=VECTOR('',#1171,10.);
#382=VECTOR('',#1172,10.);
#383=VECTOR('',#1175,10.);
#384=VECTOR('',#1178,10.);
#385=VECTOR('',#1179,10.);
#386=VECTOR('',#1180,10.);
#387=VECTOR('',#1183,10.);
#388=VECTOR('',#1184,10.);
#389=VECTOR('',#1187,10.);
#390=VECTOR('',#1188,10.);
#391=VECTOR('',#1191,10.);
#392=VECTOR('',#1194,10.);
#393=VECTOR('',#1195,10.);
#394=VECTOR('',#1196,10.);
#395=VECTOR('',#1199,10.);
#396=VECTOR('',#1200,10.);
#397=VECTOR('',#1203,10.);
#398=VECTOR('',#1204,10.);
#399=VECTOR('',#1207,10.);
#400=VECTOR('',#1210,10.);
#401=VECTOR('',#1211,10.);
#402=VECTOR('',#1212,10.);
#403=VECTOR('',#1215,10.);
#404=VECTOR('',#1216,10.);
#405=VECTOR('',#1219,10.);
#406=VECTOR('',#1220,10.);
#407=VECTOR('',#1223,10.);
#408=VECTOR('',#1226,10.);
#409=VECTOR('',#1227,10.);
#410=VECTOR('',#1228,10.);
#411=VECTOR('',#1231,10.);
#412=VECTOR('',#1232,10.);
#413=VECTOR('',#1235,10.);
#414=VECTOR('',#1236,10.);
#415=VECTOR('',#1239,10.);
#416=VECTOR('',#1242,10.);
#417=VECTOR('',#1243,10.);
#418=VECTOR('',#1244,10.);
#419=VECTOR('',#1247,10.);
#420=VECTOR('',#1248,10.);
#421=VECTOR('',#1251,10.);
#422=VECTOR('',#1252,10.);
#423=VECTOR('',#1255,10.);
#424=VECTOR('',#1258,10.);
#425=VECTOR('',#1259,10.);
#426=VECTOR('',#1260,10.);
#427=VECTOR('',#1263,10.);
#428=VECTOR('',#1264,10.);
#429=VECTOR('',#1267,10.);
#430=VECTOR('',#1268,10.);
#431=VECTOR('',#1271,10.);
#432=VECTOR('',#1274,10.);
#433=CIRCLE('',#990,5.);
#434=CIRCLE('',#991,5.);
#435=CIRCLE('',#994,5.);
#436=CIRCLE('',#995,5.);
#437=CIRCLE('',#996,5.);
#438=CIRCLE('',#998,5.);
#439=CIRCLE('',#1001,5.);
#440=CIRCLE('',#1003,5.);
#441=VERTEX_POINT('',#1279);
#442=VERTEX_POINT('',#1280);
#443=VERTEX_POINT('',#1282);
#444=VERTEX_POINT('',#1284);
#445=VERTEX_POINT('',#1288);
#446=VERTEX_POINT('',#1290);
#447=VERTEX_POINT('',#1294);
#448=VERTEX_POINT('',#1296);
#449=VERTEX_POINT('',#1298);
#450=VERTEX_POINT('',#1300);
#451=VERTEX_POINT('',#1302);
#452=VERTEX_POINT('',#1305);
#453=VERTEX_POINT('',#1306);
#454=VERTEX_POINT('',#1308);
#455=VERTEX_POINT('',#1310);
#456=VERTEX_POINT('',#1313);
#457=VERTEX_POINT('',#1314);
#458=VERTEX_POINT('',#1316);
#459=VERTEX_POINT('',#1318);
#460=VERTEX_POINT('',#1321);
#461=VERTEX_POINT('',#1322);
#462=VERTEX_POINT('',#1324);
#463=VERTEX_POINT('',#1326);
#464=VERTEX_POINT('',#1329);
#465=VERTEX_POINT('',#1330);
#466=VERTEX_POINT('',#1332);
#467=VERTEX_POINT('',#1334);
#468=VERTEX_POINT('',#1337);
#469=VERTEX_POINT('',#1338);
#470=VERTEX_POINT('',#1340);
#471=VERTEX_POINT('',#1342);
#472=VERTEX_POINT('',#1345);
#473=VERTEX_POINT('',#1346);
#474=VERTEX_POINT('',#1348);
#475=VERTEX_POINT('',#1350);
#476=VERTEX_POINT('',#1353);
#477=VERTEX_POINT('',#1354);
#478=VERTEX_POINT('',#1356);
#479=VERTEX_POINT('',#1358);
#480=VERTEX_POINT('',#1361);
#481=VERTEX_POINT('',#1362);
#482=VERTEX_POINT('',#1364);
#483=VERTEX_POINT('',#1366);
#484=VERTEX_POINT('',#1369);
#485=VERTEX_POINT('',#1370);
#486=VERTEX_POINT('',#1372);
#487=VERTEX_POINT('',#1374);
#488=VERTEX_POINT('',#1378);
#489=VERTEX_POINT('',#1380);
#490=VERTEX_POINT('',#1384);
#491=VERTEX_POINT('',#1390);
#492=VERTEX_POINT('',#1392);
#493=VERTEX_POINT('',#1398);
#494=VERTEX_POINT('',#1399);
#495=VERTEX_POINT('',#1404);
#496=VERTEX_POINT('',#1408);
#497=VERTEX_POINT('',#1414);
#498=VERTEX_POINT('',#1415);
#499=VERTEX_POINT('',#1420);
#500=VERTEX_POINT('',#1424);
#501=VERTEX_POINT('',#1430);
#502=VERTEX_POINT('',#1431);
#503=VERTEX_POINT('',#1436);
#504=VERTEX_POINT('',#1440);
#505=VERTEX_POINT('',#1446);
#506=VERTEX_POINT('',#1447);
#507=VERTEX_POINT('',#1452);
#508=VERTEX_POINT('',#1456);
#509=VERTEX_POINT('',#1462);
#510=VERTEX_POINT('',#1463);
#511=VERTEX_POINT('',#1468);
#512=VERTEX_POINT('',#1472);
#513=VERTEX_POINT('',#1478);
#514=VERTEX_POINT('',#1479);
#515=VERTEX_POINT('',#1484);
#516=VERTEX_POINT('',#1488);
#517=VERTEX_POINT('',#1494);
#518=VERTEX_POINT('',#1495);
#519=VERTEX_POINT('',#1500);
#520=VERTEX_POINT('',#1504);
#521=VERTEX_POINT('',#1510);
#522=VERTEX_POINT('',#1511);
#523=VERTEX_POINT('',#1516);
#524=VERTEX_POINT('',#1520);
#525=VERTEX_POINT('',#1526);
#526=VERTEX_POINT('',#1527);
#527=VERTEX_POINT('',#1532);
#528=VERTEX_POINT('',#1536);
#529=EDGE_CURVE('',#441,#442,#433,.T.);
#530=EDGE_CURVE('',#442,#443,#185,.T.);
#531=EDGE_CURVE('',#443,#444,#434,.T.);
#532=EDGE_CURVE('',#444,#441,#186,.T.);
#533=EDGE_CURVE('',#445,#442,#187,.T.);
#534=EDGE_CURVE('',#446,#445,#188,.T.);
#535=EDGE_CURVE('',#446,#443,#189,.T.);
#536=EDGE_CURVE('',#441,#447,#190,.T.);
#537=EDGE_CURVE('',#448,#447,#435,.T.);
#538=EDGE_CURVE('',#448,#449,#191,.T.);
#539=EDGE_CURVE('',#450,#449,#436,.T.);
#540=EDGE_CURVE('',#450,#451,#192,.T.);
#541=EDGE_CURVE('',#445,#451,#437,.T.);
#542=EDGE_CURVE('',#452,#453,#193,.T.);
#543=EDGE_CURVE('',#453,#454,#194,.T.);
#544=EDGE_CURVE('',#454,#455,#195,.T.);
#545=EDGE_CURVE('',#455,#452,#196,.T.);
#546=EDGE_CURVE('',#456,#457,#197,.T.);
#547=EDGE_CURVE('',#457,#458,#198,.T.);
#548=EDGE_CURVE('',#458,#459,#199,.T.);
#549=EDGE_CURVE('',#459,#456,#200,.T.);
#550=EDGE_CURVE('',#460,#461,#201,.T.);
#551=EDGE_CURVE('',#461,#462,#202,.T.);
#552=EDGE_CURVE('',#462,#463,#203,.T.);
#553=EDGE_CURVE('',#463,#460,#204,.T.);
#554=EDGE_CURVE('',#464,#465,#205,.T.);
#555=EDGE_CURVE('',#465,#466,#206,.T.);
#556=EDGE_CURVE('',#466,#467,#207,.T.);
#557=EDGE_CURVE('',#467,#464,#208,.T.);
#558=EDGE_CURVE('',#468,#469,#209,.T.);
#559=EDGE_CURVE('',#469,#470,#210,.T.);
#560=EDGE_CURVE('',#470,#471,#211,.T.);
#561=EDGE_CURVE('',#471,#468,#212,.T.);
#562=EDGE_CURVE('',#472,#473,#213,.T.);
#563=EDGE_CURVE('',#473,#474,#214,.T.);
#564=EDGE_CURVE('',#474,#475,#215,.T.);
#565=EDGE_CURVE('',#475,#472,#216,.T.);
#566=EDGE_CURVE('',#476,#477,#217,.T.);
#567=EDGE_CURVE('',#477,#478,#218,.T.);
#568=EDGE_CURVE('',#478,#479,#219,.T.);
#569=EDGE_CURVE('',#479,#476,#220,.T.);
#570=EDGE_CURVE('',#480,#481,#221,.T.);
#571=EDGE_CURVE('',#481,#482,#222,.T.);
#572=EDGE_CURVE('',#482,#483,#223,.T.);
#573=EDGE_CURVE('',#483,#480,#224,.T.);
#574=EDGE_CURVE('',#484,#485,#225,.T.);
#575=EDGE_CURVE('',#485,#486,#226,.T.);
#576=EDGE_CURVE('',#486,#487,#227,.T.);
#577=EDGE_CURVE('',#487,#484,#228,.T.);
#578=EDGE_CURVE('',#449,#488,#229,.T.);
#579=EDGE_CURVE('',#488,#489,#438,.T.);
#580=EDGE_CURVE('',#489,#450,#230,.T.);
#581=EDGE_CURVE('',#489,#490,#231,.T.);
#582=EDGE_CURVE('',#451,#490,#232,.T.);
#583=EDGE_CURVE('',#490,#446,#439,.T.);
#584=EDGE_CURVE('',#447,#491,#233,.T.);
#585=EDGE_CURVE('',#491,#492,#440,.T.);
#586=EDGE_CURVE('',#492,#448,#234,.T.);
#587=EDGE_CURVE('',#492,#488,#235,.T.);
#588=EDGE_CURVE('',#493,#494,#236,.T.);
#589=EDGE_CURVE('',#494,#484,#237,.T.);
#590=EDGE_CURVE('',#493,#487,#238,.T.);
#591=EDGE_CURVE('',#495,#493,#239,.T.);
#592=EDGE_CURVE('',#495,#486,#240,.T.);
#593=EDGE_CURVE('',#496,#495,#241,.T.);
#594=EDGE_CURVE('',#496,#485,#242,.T.);
#595=EDGE_CURVE('',#494,#496,#243,.T.);
#596=EDGE_CURVE('',#497,#498,#244,.T.);
#597=EDGE_CURVE('',#498,#480,#245,.T.);
#598=EDGE_CURVE('',#497,#483,#246,.T.);
#599=EDGE_CURVE('',#499,#497,#247,.T.);
#600=EDGE_CURVE('',#499,#482,#248,.T.);
#601=EDGE_CURVE('',#500,#499,#249,.T.);
#602=EDGE_CURVE('',#500,#481,#250,.T.);
#603=EDGE_CURVE('',#498,#500,#251,.T.);
#604=EDGE_CURVE('',#501,#502,#252,.T.);
#605=EDGE_CURVE('',#502,#476,#253,.T.);
#606=EDGE_CURVE('',#501,#479,#254,.T.);
#607=EDGE_CURVE('',#503,#501,#255,.T.);
#608=EDGE_CURVE('',#503,#478,#256,.T.);
#609=EDGE_CURVE('',#504,#503,#257,.T.);
#610=EDGE_CURVE('',#504,#477,#258,.T.);
#611=EDGE_CURVE('',#502,#504,#259,.T.);
#612=EDGE_CURVE('',#505,#506,#260,.T.);
#613=EDGE_CURVE('',#506,#472,#261,.T.);
#614=EDGE_CURVE('',#505,#475,#262,.T.);
#615=EDGE_CURVE('',#507,#505,#263,.T.);
#616=EDGE_CURVE('',#507,#474,#264,.T.);
#617=EDGE_CURVE('',#508,#507,#265,.T.);
#618=EDGE_CURVE('',#508,#473,#266,.T.);
#619=EDGE_CURVE('',#506,#508,#267,.T.);
#620=EDGE_CURVE('',#509,#510,#268,.T.);
#621=EDGE_CURVE('',#510,#468,#269,.T.);
#622=EDGE_CURVE('',#509,#471,#270,.T.);
#623=EDGE_CURVE('',#511,#509,#271,.T.);
#624=EDGE_CURVE('',#511,#470,#272,.T.);
#625=EDGE_CURVE('',#512,#511,#273,.T.);
#626=EDGE_CURVE('',#512,#469,#274,.T.);
#627=EDGE_CURVE('',#510,#512,#275,.T.);
#628=EDGE_CURVE('',#513,#514,#276,.T.);
#629=EDGE_CURVE('',#514,#464,#277,.T.);
#630=EDGE_CURVE('',#513,#467,#278,.T.);
#631=EDGE_CURVE('',#515,#513,#279,.T.);
#632=EDGE_CURVE('',#515,#466,#280,.T.);
#633=EDGE_CURVE('',#516,#515,#281,.T.);
#634=EDGE_CURVE('',#516,#465,#282,.T.);
#635=EDGE_CURVE('',#514,#516,#283,.T.);
#636=EDGE_CURVE('',#517,#518,#284,.T.);
#637=EDGE_CURVE('',#518,#460,#285,.T.);
#638=EDGE_CURVE('',#517,#463,#286,.T.);
#639=EDGE_CURVE('',#519,#517,#287,.T.);
#640=EDGE_CURVE('',#519,#462,#288,.T.);
#641=EDGE_CURVE('',#520,#519,#289,.T.);
#642=EDGE_CURVE('',#520,#461,#290,.T.);
#643=EDGE_CURVE('',#518,#520,#291,.T.);
#644=EDGE_CURVE('',#521,#522,#292,.T.);
#645=EDGE_CURVE('',#522,#456,#293,.T.);
#646=EDGE_CURVE('',#521,#459,#294,.T.);
#647=EDGE_CURVE('',#523,#521,#295,.T.);
#648=EDGE_CURVE('',#523,#458,#296,.T.);
#649=EDGE_CURVE('',#524,#523,#297,.T.);
#650=EDGE_CURVE('',#524,#457,#298,.T.);
#651=EDGE_CURVE('',#522,#524,#299,.T.);
#652=EDGE_CURVE('',#525,#526,#300,.T.);
#653=EDGE_CURVE('',#526,#452,#301,.T.);
#654=EDGE_CURVE('',#525,#455,#302,.T.);
#655=EDGE_CURVE('',#527,#525,#303,.T.);
#656=EDGE_CURVE('',#527,#454,#304,.T.);
#657=EDGE_CURVE('',#528,#527,#305,.T.);
#658=EDGE_CURVE('',#528,#453,#306,.T.);
#659=EDGE_CURVE('',#526,#528,#307,.T.);
#660=EDGE_CURVE('',#491,#444,#308,.T.);
#661=ORIENTED_EDGE('',*,*,#529,.T.);
#662=ORIENTED_EDGE('',*,*,#530,.T.);
#663=ORIENTED_EDGE('',*,*,#531,.T.);
#664=ORIENTED_EDGE('',*,*,#532,.T.);
#665=ORIENTED_EDGE('',*,*,#530,.F.);
#666=ORIENTED_EDGE('',*,*,#533,.F.);
#667=ORIENTED_EDGE('',*,*,#534,.F.);
#668=ORIENTED_EDGE('',*,*,#535,.T.);
#669=ORIENTED_EDGE('',*,*,#529,.F.);
#670=ORIENTED_EDGE('',*,*,#536,.T.);
#671=ORIENTED_EDGE('',*,*,#537,.F.);
#672=ORIENTED_EDGE('',*,*,#538,.T.);
#673=ORIENTED_EDGE('',*,*,#539,.F.);
#674=ORIENTED_EDGE('',*,*,#540,.T.);
#675=ORIENTED_EDGE('',*,*,#541,.F.);
#676=ORIENTED_EDGE('',*,*,#533,.T.);
#677=ORIENTED_EDGE('',*,*,#542,.T.);
#678=ORIENTED_EDGE('',*,*,#543,.T.);
#679=ORIENTED_EDGE('',*,*,#544,.T.);
#680=ORIENTED_EDGE('',*,*,#545,.T.);
#681=ORIENTED_EDGE('',*,*,#546,.T.);
#682=ORIENTED_EDGE('',*,*,#547,.T.);
#683=ORIENTED_EDGE('',*,*,#548,.T.);
#684=ORIENTED_EDGE('',*,*,#549,.T.);
#685=ORIENTED_EDGE('',*,*,#550,.T.);
#686=ORIENTED_EDGE('',*,*,#551,.T.);
#687=ORIENTED_EDGE('',*,*,#552,.T.);
#688=ORIENTED_EDGE('',*,*,#553,.T.);
#689=ORIENTED_EDGE('',*,*,#554,.T.);
#690=ORIENTED_EDGE('',*,*,#555,.T.);
#691=ORIENTED_EDGE('',*,*,#556,.T.);
#692=ORIENTED_EDGE('',*,*,#557,.T.);
#693=ORIENTED_EDGE('',*,*,#558,.T.);
#694=ORIENTED_EDGE('',*,*,#559,.T.);
#695=ORIENTED_EDGE('',*,*,#560,.T.);
#696=ORIENTED_EDGE('',*,*,#561,.T.);
#697=ORIENTED_EDGE('',*,*,#562,.T.);
#698=ORIENTED_EDGE('',*,*,#563,.T.);
#699=ORIENTED_EDGE('',*,*,#564,.T.);
#700=ORIENTED_EDGE('',*,*,#565,.T.);
#701=ORIENTED_EDGE('',*,*,#566,.T.);
#702=ORIENTED_EDGE('',*,*,#567,.T.);
#703=ORIENTED_EDGE('',*,*,#568,.T.);
#704=ORIENTED_EDGE('',*,*,#569,.T.);
#705=ORIENTED_EDGE('',*,*,#570,.T.);
#706=ORIENTED_EDGE('',*,*,#571,.T.);
#707=ORIENTED_EDGE('',*,*,#572,.T.);
#708=ORIENTED_EDGE('',*,*,#573,.T.);
#709=ORIENTED_EDGE('',*,*,#574,.T.);
#710=ORIENTED_EDGE('',*,*,#575,.T.);
#711=ORIENTED_EDGE('',*,*,#576,.T.);
#712=ORIENTED_EDGE('',*,*,#577,.T.);
#713=ORIENTED_EDGE('',*,*,#539,.T.);
#714=ORIENTED_EDGE('',*,*,#578,.T.);
#715=ORIENTED_EDGE('',*,*,#579,.T.);
#716=ORIENTED_EDGE('',*,*,#580,.T.);
#717=ORIENTED_EDGE('',*,*,#580,.F.);
#718=ORIENTED_EDGE('',*,*,#581,.T.);
#719=ORIENTED_EDGE('',*,*,#582,.F.);
#720=ORIENTED_EDGE('',*,*,#540,.F.);
#721=ORIENTED_EDGE('',*,*,#541,.T.);
#722=ORIENTED_EDGE('',*,*,#582,.T.);
#723=ORIENTED_EDGE('',*,*,#583,.T.);
#724=ORIENTED_EDGE('',*,*,#534,.T.);
#725=ORIENTED_EDGE('',*,*,#537,.T.);
#726=ORIENTED_EDGE('',*,*,#584,.T.);
#727=ORIENTED_EDGE('',*,*,#585,.T.);
#728=ORIENTED_EDGE('',*,*,#586,.T.);
#729=ORIENTED_EDGE('',*,*,#578,.F.);
#730=ORIENTED_EDGE('',*,*,#538,.F.);
#731=ORIENTED_EDGE('',*,*,#586,.F.);
#732=ORIENTED_EDGE('',*,*,#587,.T.);
#733=ORIENTED_EDGE('',*,*,#588,.T.);
#734=ORIENTED_EDGE('',*,*,#589,.T.);
#735=ORIENTED_EDGE('',*,*,#577,.F.);
#736=ORIENTED_EDGE('',*,*,#590,.F.);
#737=ORIENTED_EDGE('',*,*,#591,.T.);
#738=ORIENTED_EDGE('',*,*,#590,.T.);
#739=ORIENTED_EDGE('',*,*,#576,.F.);
#740=ORIENTED_EDGE('',*,*,#592,.F.);
#741=ORIENTED_EDGE('',*,*,#593,.T.);
#742=ORIENTED_EDGE('',*,*,#592,.T.);
#743=ORIENTED_EDGE('',*,*,#575,.F.);
#744=ORIENTED_EDGE('',*,*,#594,.F.);
#745=ORIENTED_EDGE('',*,*,#595,.T.);
#746=ORIENTED_EDGE('',*,*,#594,.T.);
#747=ORIENTED_EDGE('',*,*,#574,.F.);
#748=ORIENTED_EDGE('',*,*,#589,.F.);
#749=ORIENTED_EDGE('',*,*,#596,.T.);
#750=ORIENTED_EDGE('',*,*,#597,.T.);
#751=ORIENTED_EDGE('',*,*,#573,.F.);
#752=ORIENTED_EDGE('',*,*,#598,.F.);
#753=ORIENTED_EDGE('',*,*,#599,.T.);
#754=ORIENTED_EDGE('',*,*,#598,.T.);
#755=ORIENTED_EDGE('',*,*,#572,.F.);
#756=ORIENTED_EDGE('',*,*,#600,.F.);
#757=ORIENTED_EDGE('',*,*,#601,.T.);
#758=ORIENTED_EDGE('',*,*,#600,.T.);
#759=ORIENTED_EDGE('',*,*,#571,.F.);
#760=ORIENTED_EDGE('',*,*,#602,.F.);
#761=ORIENTED_EDGE('',*,*,#603,.T.);
#762=ORIENTED_EDGE('',*,*,#602,.T.);
#763=ORIENTED_EDGE('',*,*,#570,.F.);
#764=ORIENTED_EDGE('',*,*,#597,.F.);
#765=ORIENTED_EDGE('',*,*,#604,.T.);
#766=ORIENTED_EDGE('',*,*,#605,.T.);
#767=ORIENTED_EDGE('',*,*,#569,.F.);
#768=ORIENTED_EDGE('',*,*,#606,.F.);
#769=ORIENTED_EDGE('',*,*,#607,.T.);
#770=ORIENTED_EDGE('',*,*,#606,.T.);
#771=ORIENTED_EDGE('',*,*,#568,.F.);
#772=ORIENTED_EDGE('',*,*,#608,.F.);
#773=ORIENTED_EDGE('',*,*,#609,.T.);
#774=ORIENTED_EDGE('',*,*,#608,.T.);
#775=ORIENTED_EDGE('',*,*,#567,.F.);
#776=ORIENTED_EDGE('',*,*,#610,.F.);
#777=ORIENTED_EDGE('',*,*,#611,.T.);
#778=ORIENTED_EDGE('',*,*,#610,.T.);
#779=ORIENTED_EDGE('',*,*,#566,.F.);
#780=ORIENTED_EDGE('',*,*,#605,.F.);
#781=ORIENTED_EDGE('',*,*,#612,.T.);
#782=ORIENTED_EDGE('',*,*,#613,.T.);
#783=ORIENTED_EDGE('',*,*,#565,.F.);
#784=ORIENTED_EDGE('',*,*,#614,.F.);
#785=ORIENTED_EDGE('',*,*,#615,.T.);
#786=ORIENTED_EDGE('',*,*,#614,.T.);
#787=ORIENTED_EDGE('',*,*,#564,.F.);
#788=ORIENTED_EDGE('',*,*,#616,.F.);
#789=ORIENTED_EDGE('',*,*,#617,.T.);
#790=ORIENTED_EDGE('',*,*,#616,.T.);
#791=ORIENTED_EDGE('',*,*,#563,.F.);
#792=ORIENTED_EDGE('',*,*,#618,.F.);
#793=ORIENTED_EDGE('',*,*,#619,.T.);
#794=ORIENTED_EDGE('',*,*,#618,.T.);
#795=ORIENTED_EDGE('',*,*,#562,.F.);
#796=ORIENTED_EDGE('',*,*,#613,.F.);
#797=ORIENTED_EDGE('',*,*,#620,.T.);
#798=ORIENTED_EDGE('',*,*,#621,.T.);
#799=ORIENTED_EDGE('',*,*,#561,.F.);
#800=ORIENTED_EDGE('',*,*,#622,.F.);
#801=ORIENTED_EDGE('',*,*,#623,.T.);
#802=ORIENTED_EDGE('',*,*,#622,.T.);
#803=ORIENTED_EDGE('',*,*,#560,.F.);
#804=ORIENTED_EDGE('',*,*,#624,.F.);
#805=ORIENTED_EDGE('',*,*,#625,.T.);
#806=ORIENTED_EDGE('',*,*,#624,.T.);
#807=ORIENTED_EDGE('',*,*,#559,.F.);
#808=ORIENTED_EDGE('',*,*,#626,.F.);
#809=ORIENTED_EDGE('',*,*,#627,.T.);
#810=ORIENTED_EDGE('',*,*,#626,.T.);
#811=ORIENTED_EDGE('',*,*,#558,.F.);
#812=ORIENTED_EDGE('',*,*,#621,.F.);
#813=ORIENTED_EDGE('',*,*,#628,.T.);
#814=ORIENTED_EDGE('',*,*,#629,.T.);
#815=ORIENTED_EDGE('',*,*,#557,.F.);
#816=ORIENTED_EDGE('',*,*,#630,.F.);
#817=ORIENTED_EDGE('',*,*,#631,.T.);
#818=ORIENTED_EDGE('',*,*,#630,.T.);
#819=ORIENTED_EDGE('',*,*,#556,.F.);
#820=ORIENTED_EDGE('',*,*,#632,.F.);
#821=ORIENTED_EDGE('',*,*,#633,.T.);
#822=ORIENTED_EDGE('',*,*,#632,.T.);
#823=ORIENTED_EDGE('',*,*,#555,.F.);
#824=ORIENTED_EDGE('',*,*,#634,.F.);
#825=ORIENTED_EDGE('',*,*,#635,.T.);
#826=ORIENTED_EDGE('',*,*,#634,.T.);
#827=ORIENTED_EDGE('',*,*,#554,.F.);
#828=ORIENTED_EDGE('',*,*,#629,.F.);
#829=ORIENTED_EDGE('',*,*,#636,.T.);
#830=ORIENTED_EDGE('',*,*,#637,.T.);
#831=ORIENTED_EDGE('',*,*,#553,.F.);
#832=ORIENTED_EDGE('',*,*,#638,.F.);
#833=ORIENTED_EDGE('',*,*,#639,.T.);
#834=ORIENTED_EDGE('',*,*,#638,.T.);
#835=ORIENTED_EDGE('',*,*,#552,.F.);
#836=ORIENTED_EDGE('',*,*,#640,.F.);
#837=ORIENTED_EDGE('',*,*,#641,.T.);
#838=ORIENTED_EDGE('',*,*,#640,.T.);
#839=ORIENTED_EDGE('',*,*,#551,.F.);
#840=ORIENTED_EDGE('',*,*,#642,.F.);
#841=ORIENTED_EDGE('',*,*,#643,.T.);
#842=ORIENTED_EDGE('',*,*,#642,.T.);
#843=ORIENTED_EDGE('',*,*,#550,.F.);
#844=ORIENTED_EDGE('',*,*,#637,.F.);
#845=ORIENTED_EDGE('',*,*,#644,.T.);
#846=ORIENTED_EDGE('',*,*,#645,.T.);
#847=ORIENTED_EDGE('',*,*,#549,.F.);
#848=ORIENTED_EDGE('',*,*,#646,.F.);
#849=ORIENTED_EDGE('',*,*,#647,.T.);
#850=ORIENTED_EDGE('',*,*,#646,.T.);
#851=ORIENTED_EDGE('',*,*,#548,.F.);
#852=ORIENTED_EDGE('',*,*,#648,.F.);
#853=ORIENTED_EDGE('',*,*,#649,.T.);
#854=ORIENTED_EDGE('',*,*,#648,.T.);
#855=ORIENTED_EDGE('',*,*,#547,.F.);
#856=ORIENTED_EDGE('',*,*,#650,.F.);
#857=ORIENTED_EDGE('',*,*,#651,.T.);
#858=ORIENTED_EDGE('',*,*,#650,.T.);
#859=ORIENTED_EDGE('',*,*,#546,.F.);
#860=ORIENTED_EDGE('',*,*,#645,.F.);
#861=ORIENTED_EDGE('',*,*,#652,.T.);
#862=ORIENTED_EDGE('',*,*,#653,.T.);
#863=ORIENTED_EDGE('',*,*,#545,.F.);
#864=ORIENTED_EDGE('',*,*,#654,.F.);
#865=ORIENTED_EDGE('',*,*,#655,.T.);
#866=ORIENTED_EDGE('',*,*,#654,.T.);
#867=ORIENTED_EDGE('',*,*,#544,.F.);
#868=ORIENTED_EDGE('',*,*,#656,.F.);
#869=ORIENTED_EDGE('',*,*,#657,.T.);
#870=ORIENTED_EDGE('',*,*,#656,.T.);
#871=ORIENTED_EDGE('',*,*,#543,.F.);
#872=ORIENTED_EDGE('',*,*,#658,.F.);
#873=ORIENTED_EDGE('',*,*,#659,.T.);
#874=ORIENTED_EDGE('',*,*,#658,.T.);
#875=ORIENTED_EDGE('',*,*,#542,.F.);
#876=ORIENTED_EDGE('',*,*,#653,.F.);
#877=ORIENTED_EDGE('',*,*,#532,.F.);
#878=ORIENTED_EDGE('',*,*,#660,.F.);
#879=ORIENTED_EDGE('',*,*,#584,.F.);
#880=ORIENTED_EDGE('',*,*,#536,.F.);
#881=ORIENTED_EDGE('',*,*,#531,.F.);
#882=ORIENTED_EDGE('',*,*,#535,.F.);
#883=ORIENTED_EDGE('',*,*,#583,.F.);
#884=ORIENTED_EDGE('',*,*,#581,.F.);
#885=ORIENTED_EDGE('',*,*,#579,.F.);
#886=ORIENTED_EDGE('',*,*,#587,.F.);
#887=ORIENTED_EDGE('',*,*,#585,.F.);
#888=ORIENTED_EDGE('',*,*,#660,.T.);
#889=ORIENTED_EDGE('',*,*,#659,.F.);
#890=ORIENTED_EDGE('',*,*,#652,.F.);
#891=ORIENTED_EDGE('',*,*,#655,.F.);
#892=ORIENTED_EDGE('',*,*,#657,.F.);
#893=ORIENTED_EDGE('',*,*,#651,.F.);
#894=ORIENTED_EDGE('',*,*,#644,.F.);
#895=ORIENTED_EDGE('',*,*,#647,.F.);
#896=ORIENTED_EDGE('',*,*,#649,.F.);
#897=ORIENTED_EDGE('',*,*,#643,.F.);
#898=ORIENTED_EDGE('',*,*,#636,.F.);
#899=ORIENTED_EDGE('',*,*,#639,.F.);
#900=ORIENTED_EDGE('',*,*,#641,.F.);
#901=ORIENTED_EDGE('',*,*,#635,.F.);
#902=ORIENTED_EDGE('',*,*,#628,.F.);
#903=ORIENTED_EDGE('',*,*,#631,.F.);
#904=ORIENTED_EDGE('',*,*,#633,.F.);
#905=ORIENTED_EDGE('',*,*,#627,.F.);
#906=ORIENTED_EDGE('',*,*,#620,.F.);
#907=ORIENTED_EDGE('',*,*,#623,.F.);
#908=ORIENTED_EDGE('',*,*,#625,.F.);
#909=ORIENTED_EDGE('',*,*,#619,.F.);
#910=ORIENTED_EDGE('',*,*,#612,.F.);
#911=ORIENTED_EDGE('',*,*,#615,.F.);
#912=ORIENTED_EDGE('',*,*,#617,.F.);
#913=ORIENTED_EDGE('',*,*,#611,.F.);
#914=ORIENTED_EDGE('',*,*,#604,.F.);
#915=ORIENTED_EDGE('',*,*,#607,.F.);
#916=ORIENTED_EDGE('',*,*,#609,.F.);
#917=ORIENTED_EDGE('',*,*,#603,.F.);
#918=ORIENTED_EDGE('',*,*,#596,.F.);
#919=ORIENTED_EDGE('',*,*,#599,.F.);
#920=ORIENTED_EDGE('',*,*,#601,.F.);
#921=ORIENTED_EDGE('',*,*,#595,.F.);
#922=ORIENTED_EDGE('',*,*,#588,.F.);
#923=ORIENTED_EDGE('',*,*,#591,.F.);
#924=ORIENTED_EDGE('',*,*,#593,.F.);
#925=CYLINDRICAL_SURFACE('',#989,5.);
#926=CYLINDRICAL_SURFACE('',#997,5.);
#927=CYLINDRICAL_SURFACE('',#1000,5.);
#928=CYLINDRICAL_SURFACE('',#1002,5.);
#929=ADVANCED_FACE('',(#75),#925,.T.);
#930=ADVANCED_FACE('',(#76),#33,.T.);
#931=ADVANCED_FACE('',(#77,#15,#16,#17,#18,#19,#20,#21,#22,#23),#34,.T.);
#932=ADVANCED_FACE('',(#78),#926,.T.);
#933=ADVANCED_FACE('',(#79),#35,.T.);
#934=ADVANCED_FACE('',(#80),#927,.T.);
#935=ADVANCED_FACE('',(#81),#928,.T.);
#936=ADVANCED_FACE('',(#82),#36,.T.);
#937=ADVANCED_FACE('',(#83),#37,.T.);
#938=ADVANCED_FACE('',(#84),#38,.T.);
#939=ADVANCED_FACE('',(#85),#39,.T.);
#940=ADVANCED_FACE('',(#86),#40,.T.);
#941=ADVANCED_FACE('',(#87),#41,.T.);
#942=ADVANCED_FACE('',(#88),#42,.T.);
#943=ADVANCED_FACE('',(#89),#43,.T.);
#944=ADVANCED_FACE('',(#90),#44,.T.);
#945=ADVANCED_FACE('',(#91),#45,.T.);
#946=ADVANCED_FACE('',(#92),#46,.T.);
#947=ADVANCED_FACE('',(#93),#47,.T.);
#948=ADVANCED_FACE('',(#94),#48,.T.);
#949=ADVANCED_FACE('',(#95),#49,.T.);
#950=ADVANCED_FACE('',(#96),#50,.T.);
#951=ADVANCED_FACE('',(#97),#51,.T.);
#952=ADVANCED_FACE('',(#98),#52,.T.);
#953=ADVANCED_FACE('',(#99),#53,.T.);
#954=ADVANCED_FACE('',(#100),#54,.T.);
#955=ADVANCED_FACE('',(#101),#55,.T.);
#956=ADVANCED_FACE('',(#102),#56,.T.);
#957=ADVANCED_FACE('',(#103),#57,.T.);
#958=ADVANCED_FACE('',(#104),#58,.T.);
#959=ADVANCED_FACE('',(#105),#59,.T.);
#960=ADVANCED_FACE('',(#106),#60,.T.);
#961=ADVANCED_FACE('',(#107),#61,.T.);
#962=ADVANCED_FACE('',(#108),#62,.T.);
#963=ADVANCED_FACE('',(#109),#63,.T.);
#964=ADVANCED_FACE('',(#110),#64,.T.);
#965=ADVANCED_FACE('',(#111),#65,.T.);
#966=ADVANCED_FACE('',(#112),#66,.T.);
#967=ADVANCED_FACE('',(#113),#67,.T.);
#968=ADVANCED_FACE('',(#114),#68,.T.);
#969=ADVANCED_FACE('',(#115),#69,.T.);
#970=ADVANCED_FACE('',(#116),#70,.T.);
#971=ADVANCED_FACE('',(#117),#71,.T.);
#972=ADVANCED_FACE('',(#118),#72,.T.);
#973=ADVANCED_FACE('',(#119),#73,.T.);
#974=ADVANCED_FACE('',(#120,#24,#25,#26,#27,#28,#29,#30,#31,#32),#74,.F.);
#975=CLOSED_SHELL('',(#929,#930,#931,#932,#933,#934,#935,#936,#937,#938,
#939,#940,#941,#942,#943,#944,#945,#946,#947,#948,#949,#950,#951,#952,#953,
#954,#955,#956,#957,#958,#959,#960,#961,#962,#963,#964,#965,#966,#967,#968,
#969,#970,#971,#972,#973,#974));
#976=DERIVED_UNIT_ELEMENT(#978,1.);
#977=DERIVED_UNIT_ELEMENT(#1549,-3.);
#978=(
MASS_UNIT()
NAMED_UNIT(*)
SI_UNIT(.KILO.,.GRAM.)
);
#979=DERIVED_UNIT((#976,#977));
#980=MEASURE_REPRESENTATION_ITEM('density measure',
POSITIVE_RATIO_MEASURE(7850.),#979);
#981=PROPERTY_DEFINITION_REPRESENTATION(#986,#983);
#982=PROPERTY_DEFINITION_REPRESENTATION(#987,#984);
#983=REPRESENTATION('material name',(#985),#1546);
#984=REPRESENTATION('density',(#980),#1546);
#985=DESCRIPTIVE_REPRESENTATION_ITEM('Steel','Steel');
#986=PROPERTY_DEFINITION('material property','material name',#1556);
#987=PROPERTY_DEFINITION('material property','density of part',#1556);
#988=AXIS2_PLACEMENT_3D('',#1277,#1043,#1044);
#989=AXIS2_PLACEMENT_3D('',#1278,#1045,#1046);
#990=AXIS2_PLACEMENT_3D('',#1281,#1047,#1048);
#991=AXIS2_PLACEMENT_3D('',#1285,#1050,#1051);
#992=AXIS2_PLACEMENT_3D('',#1287,#1053,#1054);
#993=AXIS2_PLACEMENT_3D('',#1293,#1058,#1059);
#994=AXIS2_PLACEMENT_3D('',#1297,#1061,#1062);
#995=AXIS2_PLACEMENT_3D('',#1301,#1064,#1065);
#996=AXIS2_PLACEMENT_3D('',#1304,#1067,#1068);
#997=AXIS2_PLACEMENT_3D('',#1377,#1105,#1106);
#998=AXIS2_PLACEMENT_3D('',#1381,#1108,#1109);
#999=AXIS2_PLACEMENT_3D('',#1383,#1111,#1112);
#1000=AXIS2_PLACEMENT_3D('',#1387,#1115,#1116);
#1001=AXIS2_PLACEMENT_3D('',#1388,#1117,#1118);
#1002=AXIS2_PLACEMENT_3D('',#1389,#1119,#1120);
#1003=AXIS2_PLACEMENT_3D('',#1393,#1122,#1123);
#1004=AXIS2_PLACEMENT_3D('',#1395,#1125,#1126);
#1005=AXIS2_PLACEMENT_3D('',#1397,#1128,#1129);
#1006=AXIS2_PLACEMENT_3D('',#1403,#1133,#1134);
#1007=AXIS2_PLACEMENT_3D('',#1407,#1137,#1138);
#1008=AXIS2_PLACEMENT_3D('',#1411,#1141,#1142);
#1009=AXIS2_PLACEMENT_3D('',#1413,#1144,#1145);
#1010=AXIS2_PLACEMENT_3D('',#1419,#1149,#1150);
#1011=AXIS2_PLACEMENT_3D('',#1423,#1153,#1154);
#1012=AXIS2_PLACEMENT_3D('',#1427,#1157,#1158);
#1013=AXIS2_PLACEMENT_3D('',#1429,#1160,#1161);
#1014=AXIS2_PLACEMENT_3D('',#1435,#1165,#1166);
#1015=AXIS2_PLACEMENT_3D('',#1439,#1169,#1170);
#1016=AXIS2_PLACEMENT_3D('',#1443,#1173,#1174);
#1017=AXIS2_PLACEMENT_3D('',#1445,#1176,#1177);
#1018=AXIS2_PLACEMENT_3D('',#1451,#1181,#1182);
#1019=AXIS2_PLACEMENT_3D('',#1455,#1185,#1186);
#1020=AXIS2_PLACEMENT_3D('',#1459,#1189,#1190);
#1021=AXIS2_PLACEMENT_3D('',#1461,#1192,#1193);
#1022=AXIS2_PLACEMENT_3D('',#1467,#1197,#1198);
#1023=AXIS2_PLACEMENT_3D('',#1471,#1201,#1202);
#1024=AXIS2_PLACEMENT_3D('',#1475,#1205,#1206);
#1025=AXIS2_PLACEMENT_3D('',#1477,#1208,#1209);
#1026=AXIS2_PLACEMENT_3D('',#1483,#1213,#1214);
#1027=AXIS2_PLACEMENT_3D('',#1487,#1217,#1218);
#1028=AXIS2_PLACEMENT_3D('',#1491,#1221,#1222);
#1029=AXIS2_PLACEMENT_3D('',#1493,#1224,#1225);
#1030=AXIS2_PLACEMENT_3D('',#1499,#1229,#1230);
#1031=AXIS2_PLACEMENT_3D('',#1503,#1233,#1234);
#1032=AXIS2_PLACEMENT_3D('',#1507,#1237,#1238);
#1033=AXIS2_PLACEMENT_3D('',#1509,#1240,#1241);
#1034=AXIS2_PLACEMENT_3D('',#1515,#1245,#1246);
#1035=AXIS2_PLACEMENT_3D('',#1519,#1249,#1250);
#1036=AXIS2_PLACEMENT_3D('',#1523,#1253,#1254);
#1037=AXIS2_PLACEMENT_3D('',#1525,#1256,#1257);
#1038=AXIS2_PLACEMENT_3D('',#1531,#1261,#1262);
#1039=AXIS2_PLACEMENT_3D('',#1535,#1265,#1266);
#1040=AXIS2_PLACEMENT_3D('',#1539,#1269,#1270);
#1041=AXIS2_PLACEMENT_3D('',#1541,#1272,#1273);
#1042=AXIS2_PLACEMENT_3D('',#1543,#1275,#1276);
#1043=DIRECTION('axis',(0.,0.,1.));
#1044=DIRECTION('refdir',(1.,0.,0.));
#1045=DIRECTION('center_axis',(0.,1.,0.));
#1046=DIRECTION('ref_axis',(0.707106781186547,0.,-0.707106781186547));
#1047=DIRECTION('center_axis',(0.,-1.,0.));
#1048=DIRECTION('ref_axis',(0.707106781186547,0.,-0.707106781186547));
#1049=DIRECTION('',(0.,-1.,0.));
#1050=DIRECTION('center_axis',(0.,1.,0.));
#1051=DIRECTION('ref_axis',(0.707106781186547,0.,-0.707106781186547));
#1052=DIRECTION('',(0.,1.,0.));
#1053=DIRECTION('center_axis',(1.,0.,0.));
#1054=DIRECTION('ref_axis',(0.,0.,-1.));
#1055=DIRECTION('',(0.,0.,-1.));
#1056=DIRECTION('',(0.,1.,0.));
#1057=DIRECTION('',(0.,0.,-1.));
#1058=DIRECTION('center_axis',(0.,1.,0.));
#1059=DIRECTION('ref_axis',(0.,0.,1.));
#1060=DIRECTION('',(-1.,0.,0.));
#1061=DIRECTION('center_axis',(0.,-1.,0.));
#1062=DIRECTION('ref_axis',(-0.707106781186547,0.,-0.707106781186547));
#1063=DIRECTION('',(0.,0.,1.));
#1064=DIRECTION('center_axis',(0.,-1.,0.));
#1065=DIRECTION('ref_axis',(-0.707106781186547,0.,0.707106781186548));
#1066=DIRECTION('',(1.,0.,-3.26536183713281E-17));
#1067=DIRECTION('center_axis',(0.,-1.,0.));
#1068=DIRECTION('ref_axis',(0.707106781186547,0.,0.707106781186547));
#1069=DIRECTION('',(0.,0.,-1.));
#1070=DIRECTION('',(1.,0.,0.));
#1071=DIRECTION('',(0.,0.,1.));
#1072=DIRECTION('',(-1.,0.,0.));
#1073=DIRECTION('',(0.,0.,-1.));
#1074=DIRECTION('',(1.,0.,0.));
#1075=DIRECTION('',(0.,0.,1.));
#1076=DIRECTION('',(-1.,0.,0.));
#1077=DIRECTION('',(0.,0.,-1.));
#1078=DIRECTION('',(1.,0.,0.));
#1079=DIRECTION('',(0.,0.,1.));
#1080=DIRECTION('',(-1.,0.,0.));
#1081=DIRECTION('',(0.,0.,-1.));
#1082=DIRECTION('',(1.,0.,0.));
#1083=DIRECTION('',(0.,0.,1.));
#1084=DIRECTION('',(-1.,0.,0.));
#1085=DIRECTION('',(0.,0.,-1.));
#1086=DIRECTION('',(1.,0.,0.));
#1087=DIRECTION('',(0.,0.,1.));
#1088=DIRECTION('',(-1.,0.,0.));
#1089=DIRECTION('',(0.,0.,-1.));
#1090=DIRECTION('',(1.,0.,0.));
#1091=DIRECTION('',(0.,0.,1.));
#1092=DIRECTION('',(-1.,0.,0.));
#1093=DIRECTION('',(0.,0.,-1.));
#1094=DIRECTION('',(1.,0.,0.));
#1095=DIRECTION('',(0.,0.,1.));
#1096=DIRECTION('',(-1.,0.,0.));
#1097=DIRECTION('',(0.,0.,1.));
#1098=DIRECTION('',(-1.,0.,0.));
#1099=DIRECTION('',(0.,0.,-1.));
#1100=DIRECTION('',(1.,0.,0.));
#1101=DIRECTION('',(0.,0.,-1.));
#1102=DIRECTION('',(1.,0.,0.));
#1103=DIRECTION('',(0.,0.,1.));
#1104=DIRECTION('',(-1.,0.,0.));
#1105=DIRECTION('center_axis',(0.,1.,0.));
#1106=DIRECTION('ref_axis',(-0.707106781186547,0.,0.707106781186548));
#1107=DIRECTION('',(0.,-1.,0.));
#1108=DIRECTION('center_axis',(0.,1.,0.));
#1109=DIRECTION('ref_axis',(-0.707106781186547,0.,0.707106781186548));
#1110=DIRECTION('',(0.,1.,0.));
#1111=DIRECTION('center_axis',(3.26536183713281E-17,0.,1.));
#1112=DIRECTION('ref_axis',(1.,0.,-3.26536183713281E-17));
#1113=DIRECTION('',(1.,0.,-3.26536183713281E-17));
#1114=DIRECTION('',(0.,-1.,0.));
#1115=DIRECTION('center_axis',(0.,1.,0.));
#1116=DIRECTION('ref_axis',(0.707106781186547,0.,0.707106781186547));
#1117=DIRECTION('center_axis',(0.,1.,0.));
#1118=DIRECTION('ref_axis',(0.707106781186547,0.,0.707106781186547));
#1119=DIRECTION('center_axis',(0.,1.,0.));
#1120=DIRECTION('ref_axis',(-0.707106781186547,0.,-0.707106781186547));
#1121=DIRECTION('',(0.,-1.,0.));
#1122=DIRECTION('center_axis',(0.,1.,0.));
#1123=DIRECTION('ref_axis',(-0.707106781186547,0.,-0.707106781186547));
#1124=DIRECTION('',(0.,1.,0.));
#1125=DIRECTION('center_axis',(-1.,0.,0.));
#1126=DIRECTION('ref_axis',(0.,0.,1.));
#1127=DIRECTION('',(0.,0.,1.));
#1128=DIRECTION('center_axis',(0.,0.,-1.));
#1129=DIRECTION('ref_axis',(-1.,0.,0.));
#1130=DIRECTION('',(-1.,0.,0.));
#1131=DIRECTION('',(0.,1.,0.));
#1132=DIRECTION('',(0.,1.,0.));
#1133=DIRECTION('center_axis',(-1.,0.,0.));
#1134=DIRECTION('ref_axis',(0.,0.,1.));
#1135=DIRECTION('',(0.,0.,1.));
#1136=DIRECTION('',(0.,1.,0.));
#1137=DIRECTION('center_axis',(0.,0.,1.));
#1138=DIRECTION('ref_axis',(1.,0.,0.));
#1139=DIRECTION('',(1.,0.,0.));
#1140=DIRECTION('',(0.,1.,0.));
#1141=DIRECTION('center_axis',(1.,0.,0.));
#1142=DIRECTION('ref_axis',(0.,0.,-1.));
#1143=DIRECTION('',(0.,0.,-1.));
#1144=DIRECTION('center_axis',(0.,0.,1.));
#1145=DIRECTION('ref_axis',(1.,0.,0.));
#1146=DIRECTION('',(1.,0.,0.));
#1147=DIRECTION('',(0.,1.,0.));
#1148=DIRECTION('',(0.,1.,0.));
#1149=DIRECTION('center_axis',(1.,0.,0.));
#1150=DIRECTION('ref_axis',(0.,0.,-1.));
#1151=DIRECTION('',(0.,0.,-1.));
#1152=DIRECTION('',(0.,1.,0.));
#1153=DIRECTION('center_axis',(0.,0.,-1.));
#1154=DIRECTION('ref_axis',(-1.,0.,0.));
#1155=DIRECTION('',(-1.,0.,0.));
#1156=DIRECTION('',(0.,1.,0.));
#1157=DIRECTION('center_axis',(-1.,0.,0.));
#1158=DIRECTION('ref_axis',(0.,0.,1.));
#1159=DIRECTION('',(0.,0.,1.));
#1160=DIRECTION('center_axis',(0.,0.,-1.));
#1161=DIRECTION('ref_axis',(-1.,0.,0.));
#1162=DIRECTION('',(-1.,0.,0.));
#1163=DIRECTION('',(0.,1.,0.));
#1164=DIRECTION('',(0.,1.,0.));
#1165=DIRECTION('center_axis',(-1.,0.,0.));
#1166=DIRECTION('ref_axis',(0.,0.,1.));
#1167=DIRECTION('',(0.,0.,1.));
#1168=DIRECTION('',(0.,1.,0.));
#1169=DIRECTION('center_axis',(0.,0.,1.));
#1170=DIRECTION('ref_axis',(1.,0.,0.));
#1171=DIRECTION('',(1.,0.,0.));
#1172=DIRECTION('',(0.,1.,0.));
#1173=DIRECTION('center_axis',(1.,0.,0.));
#1174=DIRECTION('ref_axis',(0.,0.,-1.));
#1175=DIRECTION('',(0.,0.,-1.));
#1176=DIRECTION('center_axis',(0.,0.,-1.));
#1177=DIRECTION('ref_axis',(-1.,0.,0.));
#1178=DIRECTION('',(-1.,0.,0.));
#1179=DIRECTION('',(0.,1.,0.));
#1180=DIRECTION('',(0.,1.,0.));
#1181=DIRECTION('center_axis',(-1.,0.,0.));
#1182=DIRECTION('ref_axis',(0.,0.,1.));
#1183=DIRECTION('',(0.,0.,1.));
#1184=DIRECTION('',(0.,1.,0.));
#1185=DIRECTION('center_axis',(0.,0.,1.));
#1186=DIRECTION('ref_axis',(1.,0.,0.));
#1187=DIRECTION('',(1.,0.,0.));
#1188=DIRECTION('',(0.,1.,0.));
#1189=DIRECTION('center_axis',(1.,0.,0.));
#1190=DIRECTION('ref_axis',(0.,0.,-1.));
#1191=DIRECTION('',(0.,0.,-1.));
#1192=DIRECTION('center_axis',(0.,0.,-1.));
#1193=DIRECTION('ref_axis',(-1.,0.,0.));
#1194=DIRECTION('',(-1.,0.,0.));
#1195=DIRECTION('',(0.,1.,0.));
#1196=DIRECTION('',(0.,1.,0.));
#1197=DIRECTION('center_axis',(-1.,0.,0.));
#1198=DIRECTION('ref_axis',(0.,0.,1.));
#1199=DIRECTION('',(0.,0.,1.));
#1200=DIRECTION('',(0.,1.,0.));
#1201=DIRECTION('center_axis',(0.,0.,1.));
#1202=DIRECTION('ref_axis',(1.,0.,0.));
#1203=DIRECTION('',(1.,0.,0.));
#1204=DIRECTION('',(0.,1.,0.));
#1205=DIRECTION('center_axis',(1.,0.,0.));
#1206=DIRECTION('ref_axis',(0.,0.,-1.));
#1207=DIRECTION('',(0.,0.,-1.));
#1208=DIRECTION('center_axis',(0.,0.,-1.));
#1209=DIRECTION('ref_axis',(-1.,0.,0.));
#1210=DIRECTION('',(-1.,0.,0.));
#1211=DIRECTION('',(0.,1.,0.));
#1212=DIRECTION('',(0.,1.,0.));
#1213=DIRECTION('center_axis',(-1.,0.,0.));
#1214=DIRECTION('ref_axis',(0.,0.,1.));
#1215=DIRECTION('',(0.,0.,1.));
#1216=DIRECTION('',(0.,1.,0.));
#1217=DIRECTION('center_axis',(0.,0.,1.));
#1218=DIRECTION('ref_axis',(1.,0.,0.));
#1219=DIRECTION('',(1.,0.,0.));
#1220=DIRECTION('',(0.,1.,0.));
#1221=DIRECTION('center_axis',(1.,0.,0.));
#1222=DIRECTION('ref_axis',(0.,0.,-1.));
#1223=DIRECTION('',(0.,0.,-1.));
#1224=DIRECTION('center_axis',(0.,0.,-1.));
#1225=DIRECTION('ref_axis',(-1.,0.,0.));
#1226=DIRECTION('',(-1.,0.,0.));
#1227=DIRECTION('',(0.,1.,0.));
#1228=DIRECTION('',(0.,1.,0.));
#1229=DIRECTION('center_axis',(-1.,0.,0.));
#1230=DIRECTION('ref_axis',(0.,0.,1.));
#1231=DIRECTION('',(0.,0.,1.));
#1232=DIRECTION('',(0.,1.,0.));
#1233=DIRECTION('center_axis',(0.,0.,1.));
#1234=DIRECTION('ref_axis',(1.,0.,0.));
#1235=DIRECTION('',(1.,0.,0.));
#1236=DIRECTION('',(0.,1.,0.));
#1237=DIRECTION('center_axis',(1.,0.,0.));
#1238=DIRECTION('ref_axis',(0.,0.,-1.));
#1239=DIRECTION('',(0.,0.,-1.));
#1240=DIRECTION('center_axis',(0.,0.,-1.));
#1241=DIRECTION('ref_axis',(-1.,0.,0.));
#1242=DIRECTION('',(-1.,0.,0.));
#1243=DIRECTION('',(0.,1.,0.));
#1244=DIRECTION('',(0.,1.,0.));
#1245=DIRECTION('center_axis',(-1.,0.,0.));
#1246=DIRECTION('ref_axis',(0.,0.,1.));
#1247=DIRECTION('',(0.,0.,1.));
#1248=DIRECTION('',(0.,1.,0.));
#1249=DIRECTION('center_axis',(0.,0.,1.));
#1250=DIRECTION('ref_axis',(1.,0.,0.));
#1251=DIRECTION('',(1.,0.,0.));
#1252=DIRECTION('',(0.,1.,0.));
#1253=DIRECTION('center_axis',(1.,0.,0.));
#1254=DIRECTION('ref_axis',(0.,0.,-1.));
#1255=DIRECTION('',(0.,0.,-1.));
#1256=DIRECTION('center_axis',(0.,0.,-1.));
#1257=DIRECTION('ref_axis',(-1.,0.,0.));
#1258=DIRECTION('',(-1.,0.,0.));
#1259=DIRECTION('',(0.,1.,0.));
#1260=DIRECTION('',(0.,1.,0.));
#1261=DIRECTION('center_axis',(-1.,0.,0.));
#1262=DIRECTION('ref_axis',(0.,0.,1.));
#1263=DIRECTION('',(0.,0.,1.));
#1264=DIRECTION('',(0.,1.,0.));
#1265=DIRECTION('center_axis',(0.,0.,1.));
#1266=DIRECTION('ref_axis',(1.,0.,0.));
#1267=DIRECTION('',(1.,0.,0.));
#1268=DIRECTION('',(0.,1.,0.));
#1269=DIRECTION('center_axis',(1.,0.,0.));
#1270=DIRECTION('ref_axis',(0.,0.,-1.));
#1271=DIRECTION('',(0.,0.,-1.));
#1272=DIRECTION('center_axis',(0.,0.,-1.));
#1273=DIRECTION('ref_axis',(-1.,0.,0.));
#1274=DIRECTION('',(1.,0.,0.));
#1275=DIRECTION('center_axis',(0.,1.,0.));
#1276=DIRECTION('ref_axis',(1.,0.,0.));
#1277=CARTESIAN_POINT('',(0.,0.,0.));
#1278=CARTESIAN_POINT('Origin',(51.,0.,-51.));
#1279=CARTESIAN_POINT('',(51.,1.5,-56.));
#1280=CARTESIAN_POINT('',(56.,1.5,-51.));
#1281=CARTESIAN_POINT('Origin',(51.,1.5,-51.));
#1282=CARTESIAN_POINT('',(56.,0.,-51.));
#1283=CARTESIAN_POINT('',(56.,0.,-51.));
#1284=CARTESIAN_POINT('',(51.,0.,-56.));
#1285=CARTESIAN_POINT('Origin',(51.,0.,-51.));
#1286=CARTESIAN_POINT('',(51.,0.,-56.));
#1287=CARTESIAN_POINT('Origin',(56.,0.,12.));
#1288=CARTESIAN_POINT('',(56.,1.5,7.));
#1289=CARTESIAN_POINT('',(56.,1.5,12.));
#1290=CARTESIAN_POINT('',(56.,0.,7.));
#1291=CARTESIAN_POINT('',(56.,0.,7.));
#1292=CARTESIAN_POINT('',(56.,0.,12.));
#1293=CARTESIAN_POINT('Origin',(22.,1.5,-22.));
#1294=CARTESIAN_POINT('',(-7.,1.5,-56.));
#1295=CARTESIAN_POINT('',(34.,1.5,-56.));
#1296=CARTESIAN_POINT('',(-12.,1.5,-51.));
#1297=CARTESIAN_POINT('Origin',(-7.,1.5,-51.));
#1298=CARTESIAN_POINT('',(-12.,1.5,7.));
#1299=CARTESIAN_POINT('',(-12.,1.5,-78.));
#1300=CARTESIAN_POINT('',(-7.,1.5,12.));
#1301=CARTESIAN_POINT('Origin',(-7.,1.5,7.));
#1302=CARTESIAN_POINT('',(51.,1.5,12.));
#1303=CARTESIAN_POINT('',(-12.,1.5,12.));
#1304=CARTESIAN_POINT('Origin',(51.,1.5,7.));
#1305=CARTESIAN_POINT('',(37.,1.5,-37.));
#1306=CARTESIAN_POINT('',(37.,1.5,-51.));
#1307=CARTESIAN_POINT('',(37.,1.5,-51.));
#1308=CARTESIAN_POINT('',(51.,1.5,-51.));
#1309=CARTESIAN_POINT('',(51.,1.5,-51.));
#1310=CARTESIAN_POINT('',(51.,1.5,-37.));
#1311=CARTESIAN_POINT('',(51.,1.5,-37.));
#1312=CARTESIAN_POINT('',(37.,1.5,-37.));
#1313=CARTESIAN_POINT('',(-7.,1.5,-37.));
#1314=CARTESIAN_POINT('',(-7.,1.5,-51.));
#1315=CARTESIAN_POINT('',(-7.,1.5,-51.));
#1316=CARTESIAN_POINT('',(7.,1.5,-51.));
#1317=CARTESIAN_POINT('',(7.,1.5,-51.));
#1318=CARTESIAN_POINT('',(7.,1.5,-37.));
#1319=CARTESIAN_POINT('',(7.,1.5,-37.));
#1320=CARTESIAN_POINT('',(-7.,1.5,-37.));
#1321=CARTESIAN_POINT('',(15.,1.5,7.));
#1322=CARTESIAN_POINT('',(15.,1.5,-7.));
#1323=CARTESIAN_POINT('',(15.,1.5,-7.));
#1324=CARTESIAN_POINT('',(29.,1.5,-7.));
#1325=CARTESIAN_POINT('',(29.,1.5,-7.));
#1326=CARTESIAN_POINT('',(29.,1.5,7.));
#1327=CARTESIAN_POINT('',(29.,1.5,7.));
#1328=CARTESIAN_POINT('',(15.,1.5,7.));
#1329=CARTESIAN_POINT('',(37.,1.5,-15.));
#1330=CARTESIAN_POINT('',(37.,1.5,-29.));
#1331=CARTESIAN_POINT('',(37.,1.5,-29.));
#1332=CARTESIAN_POINT('',(51.,1.5,-29.));
#1333=CARTESIAN_POINT('',(51.,1.5,-29.));
#1334=CARTESIAN_POINT('',(51.,1.5,-15.));
#1335=CARTESIAN_POINT('',(51.,1.5,-15.));
#1336=CARTESIAN_POINT('',(37.,1.5,-15.));
#1337=CARTESIAN_POINT('',(37.,1.5,7.));
#1338=CARTESIAN_POINT('',(37.,1.5,-7.));
#1339=CARTESIAN_POINT('',(37.,1.5,-7.));
#1340=CARTESIAN_POINT('',(51.,1.5,-7.));
#1341=CARTESIAN_POINT('',(51.,1.5,-7.));
#1342=CARTESIAN_POINT('',(51.,1.5,7.));
#1343=CARTESIAN_POINT('',(51.,1.5,7.));
#1344=CARTESIAN_POINT('',(37.,1.5,7.));
#1345=CARTESIAN_POINT('',(15.,1.5,-37.));
#1346=CARTESIAN_POINT('',(15.,1.5,-51.));
#1347=CARTESIAN_POINT('',(15.,1.5,-51.));
#1348=CARTESIAN_POINT('',(29.,1.5,-51.));
#1349=CARTESIAN_POINT('',(29.,1.5,-51.));
#1350=CARTESIAN_POINT('',(29.,1.5,-37.));
#1351=CARTESIAN_POINT('',(29.,1.5,-37.));
#1352=CARTESIAN_POINT('',(15.,1.5,-37.));
#1353=CARTESIAN_POINT('',(-7.,1.5,-15.));
#1354=CARTESIAN_POINT('',(-7.,1.5,-29.));
#1355=CARTESIAN_POINT('',(-7.,1.5,-29.));
#1356=CARTESIAN_POINT('',(7.,1.5,-29.));
#1357=CARTESIAN_POINT('',(7.,1.5,-29.));
#1358=CARTESIAN_POINT('',(7.,1.5,-15.));
#1359=CARTESIAN_POINT('',(7.,1.5,-15.));
#1360=CARTESIAN_POINT('',(-7.,1.5,-15.));
#1361=CARTESIAN_POINT('',(7.,1.5,-7.));
#1362=CARTESIAN_POINT('',(7.,1.5,7.));
#1363=CARTESIAN_POINT('',(7.,1.5,7.));
#1364=CARTESIAN_POINT('',(-7.,1.5,7.));
#1365=CARTESIAN_POINT('',(-7.,1.5,7.));
#1366=CARTESIAN_POINT('',(-7.,1.5,-7.));
#1367=CARTESIAN_POINT('',(-7.,1.5,-7.));
#1368=CARTESIAN_POINT('',(7.,1.5,-7.));
#1369=CARTESIAN_POINT('',(15.,1.5,-15.));
#1370=CARTESIAN_POINT('',(15.,1.5,-29.));
#1371=CARTESIAN_POINT('',(15.,1.5,-29.));
#1372=CARTESIAN_POINT('',(29.,1.5,-29.));
#1373=CARTESIAN_POINT('',(29.,1.5,-29.));
#1374=CARTESIAN_POINT('',(29.,1.5,-15.));
#1375=CARTESIAN_POINT('',(29.,1.5,-15.));
#1376=CARTESIAN_POINT('',(15.,1.5,-15.));
#1377=CARTESIAN_POINT('Origin',(-7.,0.,7.));
#1378=CARTESIAN_POINT('',(-12.,0.,7.));
#1379=CARTESIAN_POINT('',(-12.,0.,7.));
#1380=CARTESIAN_POINT('',(-7.,0.,12.));
#1381=CARTESIAN_POINT('Origin',(-7.,0.,7.));
#1382=CARTESIAN_POINT('',(-7.,0.,12.));
#1383=CARTESIAN_POINT('Origin',(-12.,0.,12.));
#1384=CARTESIAN_POINT('',(51.,0.,12.));
#1385=CARTESIAN_POINT('',(-12.,0.,12.));
#1386=CARTESIAN_POINT('',(51.,0.,12.));
#1387=CARTESIAN_POINT('Origin',(51.,0.,7.));
#1388=CARTESIAN_POINT('Origin',(51.,0.,7.));
#1389=CARTESIAN_POINT('Origin',(-7.,0.,-51.));
#1390=CARTESIAN_POINT('',(-7.,0.,-56.));
#1391=CARTESIAN_POINT('',(-7.,0.,-56.));
#1392=CARTESIAN_POINT('',(-12.,0.,-51.));
#1393=CARTESIAN_POINT('Origin',(-7.,0.,-51.));
#1394=CARTESIAN_POINT('',(-12.,0.,-51.));
#1395=CARTESIAN_POINT('Origin',(-12.,0.,-56.));
#1396=CARTESIAN_POINT('',(-12.,0.,-78.));
#1397=CARTESIAN_POINT('Origin',(29.,0.,-15.));
#1398=CARTESIAN_POINT('',(29.,0.,-15.));
#1399=CARTESIAN_POINT('',(15.,0.,-15.));
#1400=CARTESIAN_POINT('',(15.,0.,-15.));
#1401=CARTESIAN_POINT('',(15.,0.,-15.));
#1402=CARTESIAN_POINT('',(29.,0.,-15.));
#1403=CARTESIAN_POINT('Origin',(29.,0.,-29.));
#1404=CARTESIAN_POINT('',(29.,0.,-29.));
#1405=CARTESIAN_POINT('',(29.,0.,-15.));
#1406=CARTESIAN_POINT('',(29.,0.,-29.));
#1407=CARTESIAN_POINT('Origin',(15.,0.,-29.));
#1408=CARTESIAN_POINT('',(15.,0.,-29.));
#1409=CARTESIAN_POINT('',(29.,0.,-29.));
#1410=CARTESIAN_POINT('',(15.,0.,-29.));
#1411=CARTESIAN_POINT('Origin',(15.,0.,-15.));
#1412=CARTESIAN_POINT('',(15.,0.,-29.));
#1413=CARTESIAN_POINT('Origin',(-7.,0.,-7.));
#1414=CARTESIAN_POINT('',(-7.,0.,-7.));
#1415=CARTESIAN_POINT('',(7.,0.,-7.));
#1416=CARTESIAN_POINT('',(7.,0.,-7.));
#1417=CARTESIAN_POINT('',(7.,0.,-7.));
#1418=CARTESIAN_POINT('',(-7.,0.,-7.));
#1419=CARTESIAN_POINT('Origin',(-7.,0.,7.));
#1420=CARTESIAN_POINT('',(-7.,0.,7.));
#1421=CARTESIAN_POINT('',(-7.,0.,-7.));
#1422=CARTESIAN_POINT('',(-7.,0.,7.));
#1423=CARTESIAN_POINT('Origin',(7.,0.,7.));
#1424=CARTESIAN_POINT('',(7.,0.,7.));
#1425=CARTESIAN_POINT('',(-7.,0.,7.));
#1426=CARTESIAN_POINT('',(7.,0.,7.));
#1427=CARTESIAN_POINT('Origin',(7.,0.,-7.));
#1428=CARTESIAN_POINT('',(7.,0.,7.));
#1429=CARTESIAN_POINT('Origin',(7.,0.,-15.));
#1430=CARTESIAN_POINT('',(7.,0.,-15.));
#1431=CARTESIAN_POINT('',(-7.,0.,-15.));
#1432=CARTESIAN_POINT('',(-7.,0.,-15.));
#1433=CARTESIAN_POINT('',(-7.,0.,-15.));
#1434=CARTESIAN_POINT('',(7.,0.,-15.));
#1435=CARTESIAN_POINT('Origin',(7.,0.,-29.));
#1436=CARTESIAN_POINT('',(7.,0.,-29.));
#1437=CARTESIAN_POINT('',(7.,0.,-15.));
#1438=CARTESIAN_POINT('',(7.,0.,-29.));
#1439=CARTESIAN_POINT('Origin',(-7.,0.,-29.));
#1440=CARTESIAN_POINT('',(-7.,0.,-29.));
#1441=CARTESIAN_POINT('',(7.,0.,-29.));
#1442=CARTESIAN_POINT('',(-7.,0.,-29.));
#1443=CARTESIAN_POINT('Origin',(-7.,0.,-15.));
#1444=CARTESIAN_POINT('',(-7.,0.,-29.));
#1445=CARTESIAN_POINT('Origin',(29.,0.,-37.));
#1446=CARTESIAN_POINT('',(29.,0.,-37.));
#1447=CARTESIAN_POINT('',(15.,0.,-37.));
#1448=CARTESIAN_POINT('',(15.,0.,-37.));
#1449=CARTESIAN_POINT('',(15.,0.,-37.));
#1450=CARTESIAN_POINT('',(29.,0.,-37.));
#1451=CARTESIAN_POINT('Origin',(29.,0.,-51.));
#1452=CARTESIAN_POINT('',(29.,0.,-51.));
#1453=CARTESIAN_POINT('',(29.,0.,-37.));
#1454=CARTESIAN_POINT('',(29.,0.,-51.));
#1455=CARTESIAN_POINT('Origin',(15.,0.,-51.));
#1456=CARTESIAN_POINT('',(15.,0.,-51.));
#1457=CARTESIAN_POINT('',(29.,0.,-51.));
#1458=CARTESIAN_POINT('',(15.,0.,-51.));
#1459=CARTESIAN_POINT('Origin',(15.,0.,-37.));
#1460=CARTESIAN_POINT('',(15.,0.,-51.));
#1461=CARTESIAN_POINT('Origin',(51.,0.,7.));
#1462=CARTESIAN_POINT('',(51.,0.,7.));
#1463=CARTESIAN_POINT('',(37.,0.,7.));
#1464=CARTESIAN_POINT('',(37.,0.,7.));
#1465=CARTESIAN_POINT('',(37.,0.,7.));
#1466=CARTESIAN_POINT('',(51.,0.,7.));
#1467=CARTESIAN_POINT('Origin',(51.,0.,-7.));
#1468=CARTESIAN_POINT('',(51.,0.,-7.));
#1469=CARTESIAN_POINT('',(51.,0.,7.));
#1470=CARTESIAN_POINT('',(51.,0.,-7.));
#1471=CARTESIAN_POINT('Origin',(37.,0.,-7.));
#1472=CARTESIAN_POINT('',(37.,0.,-7.));
#1473=CARTESIAN_POINT('',(51.,0.,-7.));
#1474=CARTESIAN_POINT('',(37.,0.,-7.));
#1475=CARTESIAN_POINT('Origin',(37.,0.,7.));
#1476=CARTESIAN_POINT('',(37.,0.,-7.));
#1477=CARTESIAN_POINT('Origin',(51.,0.,-15.));
#1478=CARTESIAN_POINT('',(51.,0.,-15.));
#1479=CARTESIAN_POINT('',(37.,0.,-15.));
#1480=CARTESIAN_POINT('',(37.,0.,-15.));
#1481=CARTESIAN_POINT('',(37.,0.,-15.));
#1482=CARTESIAN_POINT('',(51.,0.,-15.));
#1483=CARTESIAN_POINT('Origin',(51.,0.,-29.));
#1484=CARTESIAN_POINT('',(51.,0.,-29.));
#1485=CARTESIAN_POINT('',(51.,0.,-15.));
#1486=CARTESIAN_POINT('',(51.,0.,-29.));
#1487=CARTESIAN_POINT('Origin',(37.,0.,-29.));
#1488=CARTESIAN_POINT('',(37.,0.,-29.));
#1489=CARTESIAN_POINT('',(51.,0.,-29.));
#1490=CARTESIAN_POINT('',(37.,0.,-29.));
#1491=CARTESIAN_POINT('Origin',(37.,0.,-15.));
#1492=CARTESIAN_POINT('',(37.,0.,-29.));
#1493=CARTESIAN_POINT('Origin',(29.,0.,7.));
#1494=CARTESIAN_POINT('',(29.,0.,7.));
#1495=CARTESIAN_POINT('',(15.,0.,7.));
#1496=CARTESIAN_POINT('',(15.,0.,7.));
#1497=CARTESIAN_POINT('',(15.,0.,7.));
#1498=CARTESIAN_POINT('',(29.,0.,7.));
#1499=CARTESIAN_POINT('Origin',(29.,0.,-7.));
#1500=CARTESIAN_POINT('',(29.,0.,-7.));
#1501=CARTESIAN_POINT('',(29.,0.,7.));
#1502=CARTESIAN_POINT('',(29.,0.,-7.));
#1503=CARTESIAN_POINT('Origin',(15.,0.,-7.));
#1504=CARTESIAN_POINT('',(15.,0.,-7.));
#1505=CARTESIAN_POINT('',(29.,0.,-7.));
#1506=CARTESIAN_POINT('',(15.,0.,-7.));
#1507=CARTESIAN_POINT('Origin',(15.,0.,7.));
#1508=CARTESIAN_POINT('',(15.,0.,-7.));
#1509=CARTESIAN_POINT('Origin',(7.,0.,-37.));
#1510=CARTESIAN_POINT('',(7.,0.,-37.));
#1511=CARTESIAN_POINT('',(-7.,0.,-37.));
#1512=CARTESIAN_POINT('',(-7.,0.,-37.));
#1513=CARTESIAN_POINT('',(-7.,0.,-37.));
#1514=CARTESIAN_POINT('',(7.,0.,-37.));
#1515=CARTESIAN_POINT('Origin',(7.,0.,-51.));
#1516=CARTESIAN_POINT('',(7.,0.,-51.));
#1517=CARTESIAN_POINT('',(7.,0.,-37.));
#1518=CARTESIAN_POINT('',(7.,0.,-51.));
#1519=CARTESIAN_POINT('Origin',(-7.,0.,-51.));
#1520=CARTESIAN_POINT('',(-7.,0.,-51.));
#1521=CARTESIAN_POINT('',(7.,0.,-51.));
#1522=CARTESIAN_POINT('',(-7.,0.,-51.));
#1523=CARTESIAN_POINT('Origin',(-7.,0.,-37.));
#1524=CARTESIAN_POINT('',(-7.,0.,-51.));
#1525=CARTESIAN_POINT('Origin',(51.,0.,-37.));
#1526=CARTESIAN_POINT('',(51.,0.,-37.));
#1527=CARTESIAN_POINT('',(37.,0.,-37.));
#1528=CARTESIAN_POINT('',(37.,0.,-37.));
#1529=CARTESIAN_POINT('',(37.,0.,-37.));
#1530=CARTESIAN_POINT('',(51.,0.,-37.));
#1531=CARTESIAN_POINT('Origin',(51.,0.,-51.));
#1532=CARTESIAN_POINT('',(51.,0.,-51.));
#1533=CARTESIAN_POINT('',(51.,0.,-37.));
#1534=CARTESIAN_POINT('',(51.,0.,-51.));
#1535=CARTESIAN_POINT('Origin',(37.,0.,-51.));
#1536=CARTESIAN_POINT('',(37.,0.,-51.));
#1537=CARTESIAN_POINT('',(51.,0.,-51.));
#1538=CARTESIAN_POINT('',(37.,0.,-51.));
#1539=CARTESIAN_POINT('Origin',(37.,0.,-37.));
#1540=CARTESIAN_POINT('',(37.,0.,-51.));
#1541=CARTESIAN_POINT('Origin',(56.,0.,-56.));
#1542=CARTESIAN_POINT('',(34.,0.,-56.));
#1543=CARTESIAN_POINT('Origin',(22.,0.,-22.));
#1544=UNCERTAINTY_MEASURE_WITH_UNIT(LENGTH_MEASURE(0.01),#1548,
'DISTANCE_ACCURACY_VALUE',
'Maximum model space distance between geometric entities at asserted c
onnectivities');
#1545=UNCERTAINTY_MEASURE_WITH_UNIT(LENGTH_MEASURE(0.01),#1548,
'DISTANCE_ACCURACY_VALUE',
'Maximum model space distance between geometric entities at asserted c
onnectivities');
#1546=(
GEOMETRIC_REPRESENTATION_CONTEXT(3)
GLOBAL_UNCERTAINTY_ASSIGNED_CONTEXT((#1544))
GLOBAL_UNIT_ASSIGNED_CONTEXT((#1548,#1550,#1551))
REPRESENTATION_CONTEXT('','3D')
);
#1547=(
GEOMETRIC_REPRESENTATION_CONTEXT(3)
GLOBAL_UNCERTAINTY_ASSIGNED_CONTEXT((#1545))
GLOBAL_UNIT_ASSIGNED_CONTEXT((#1548,#1550,#1551))
REPRESENTATION_CONTEXT('','3D')
);
#1548=(
LENGTH_UNIT()
NAMED_UNIT(*)
SI_UNIT(.MILLI.,.METRE.)
);
#1549=(
LENGTH_UNIT()
NAMED_UNIT(*)
SI_UNIT($,.METRE.)
);
#1550=(
NAMED_UNIT(*)
PLANE_ANGLE_UNIT()
SI_UNIT($,.RADIAN.)
);
#1551=(
NAMED_UNIT(*)
SI_UNIT($,.STERADIAN.)
SOLID_ANGLE_UNIT()
);
#1552=SHAPE_DEFINITION_REPRESENTATION(#1553,#1554);
#1553=PRODUCT_DEFINITION_SHAPE('',$,#1556);
#1554=SHAPE_REPRESENTATION('',(#988),#1546);
#1555=PRODUCT_DEFINITION_CONTEXT('part definition',#1560,'design');
#1556=PRODUCT_DEFINITION('T9 KeyPad','T9 KeyPad v18',#1557,#1555);
#1557=PRODUCT_DEFINITION_FORMATION('',$,#1562);
#1558=PRODUCT_RELATED_PRODUCT_CATEGORY('T9 KeyPad v18','T9 KeyPad v18',
(#1562));
#1559=APPLICATION_PROTOCOL_DEFINITION('international standard',
'automotive_design',2009,#1560);
#1560=APPLICATION_CONTEXT(
'Core Data for Automotive Mechanical Design Process');
#1561=PRODUCT_CONTEXT('part definition',#1560,'mechanical');
#1562=PRODUCT('T9 KeyPad','T9 KeyPad v18',$,(#1561));
#1563=PRESENTATION_STYLE_ASSIGNMENT((#1574));
#1564=PRESENTATION_STYLE_ASSIGNMENT((#1575));
#1565=PRESENTATION_STYLE_ASSIGNMENT((#1576));
#1566=PRESENTATION_STYLE_ASSIGNMENT((#1577));
#1567=PRESENTATION_STYLE_ASSIGNMENT((#1578));
#1568=PRESENTATION_STYLE_ASSIGNMENT((#1579));
#1569=PRESENTATION_STYLE_ASSIGNMENT((#1580));
#1570=PRESENTATION_STYLE_ASSIGNMENT((#1581));
#1571=PRESENTATION_STYLE_ASSIGNMENT((#1582));
#1572=PRESENTATION_STYLE_ASSIGNMENT((#1583));
#1573=PRESENTATION_STYLE_ASSIGNMENT((#1584));
#1574=SURFACE_STYLE_USAGE(.BOTH.,#1585);
#1575=SURFACE_STYLE_USAGE(.BOTH.,#1586);
#1576=SURFACE_STYLE_USAGE(.BOTH.,#1587);
#1577=SURFACE_STYLE_USAGE(.BOTH.,#1588);
#1578=SURFACE_STYLE_USAGE(.BOTH.,#1589);
#1579=SURFACE_STYLE_USAGE(.BOTH.,#1590);
#1580=SURFACE_STYLE_USAGE(.BOTH.,#1591);
#1581=SURFACE_STYLE_USAGE(.BOTH.,#1592);
#1582=SURFACE_STYLE_USAGE(.BOTH.,#1593);
#1583=SURFACE_STYLE_USAGE(.BOTH.,#1594);
#1584=SURFACE_STYLE_USAGE(.BOTH.,#1595);
#1585=SURFACE_SIDE_STYLE('',(#1596));
#1586=SURFACE_SIDE_STYLE('',(#1597));
#1587=SURFACE_SIDE_STYLE('',(#1598));
#1588=SURFACE_SIDE_STYLE('',(#1599));
#1589=SURFACE_SIDE_STYLE('',(#1600));
#1590=SURFACE_SIDE_STYLE('',(#1601));
#1591=SURFACE_SIDE_STYLE('',(#1602));
#1592=SURFACE_SIDE_STYLE('',(#1603));
#1593=SURFACE_SIDE_STYLE('',(#1604));
#1594=SURFACE_SIDE_STYLE('',(#1605));
#1595=SURFACE_SIDE_STYLE('',(#1606));
#1596=SURFACE_STYLE_FILL_AREA(#1607);
#1597=SURFACE_STYLE_FILL_AREA(#1608);
#1598=SURFACE_STYLE_FILL_AREA(#1609);
#1599=SURFACE_STYLE_FILL_AREA(#1610);
#1600=SURFACE_STYLE_FILL_AREA(#1611);
#1601=SURFACE_STYLE_FILL_AREA(#1612);
#1602=SURFACE_STYLE_FILL_AREA(#1613);
#1603=SURFACE_STYLE_FILL_AREA(#1614);
#1604=SURFACE_STYLE_FILL_AREA(#1615);
#1605=SURFACE_STYLE_FILL_AREA(#1616);
#1606=SURFACE_STYLE_FILL_AREA(#1617);
#1607=FILL_AREA_STYLE('Steel - Satin',(#1618));
#1608=FILL_AREA_STYLE('ABS (White)',(#1619));
#1609=FILL_AREA_STYLE('ABS (White)',(#1620));
#1610=FILL_AREA_STYLE('Opaque(25,25,25)',(#1621));
#1611=FILL_AREA_STYLE('Opaque(160,160,160)',(#1622));
#1612=FILL_AREA_STYLE('Opaque(244,229,167)',(#1623));
#1613=FILL_AREA_STYLE('Opaque(246,246,243)',(#1624));
#1614=FILL_AREA_STYLE('Opaque(247,224,153)',(#1625));
#1615=FILL_AREA_STYLE('ABS (White)',(#1626));
#1616=FILL_AREA_STYLE('ABS (White)',(#1627));
#1617=FILL_AREA_STYLE('ABS (White)',(#1628));
#1618=FILL_AREA_STYLE_COLOUR('Steel - Satin',#1629);
#1619=FILL_AREA_STYLE_COLOUR('ABS (White)',#1630);
#1620=FILL_AREA_STYLE_COLOUR('ABS (White)',#1631);
#1621=FILL_AREA_STYLE_COLOUR('Opaque(25,25,25)',#1632);
#1622=FILL_AREA_STYLE_COLOUR('Opaque(160,160,160)',#1633);
#1623=FILL_AREA_STYLE_COLOUR('Opaque(244,229,167)',#1634);
#1624=FILL_AREA_STYLE_COLOUR('Opaque(246,246,243)',#1635);
#1625=FILL_AREA_STYLE_COLOUR('Opaque(247,224,153)',#1636);
#1626=FILL_AREA_STYLE_COLOUR('ABS (White)',#1637);
#1627=FILL_AREA_STYLE_COLOUR('ABS (White)',#1638);
#1628=FILL_AREA_STYLE_COLOUR('ABS (White)',#1639);
#1629=COLOUR_RGB('Steel - Satin',0.627450980392157,0.627450980392157,0.627450980392157);
#1630=COLOUR_RGB('ABS (White)',0.494117647058824,0.356862745098039,0.23921568627451);
#1631=COLOUR_RGB('ABS (White)',0.886274509803922,0.780392156862745,0.4);
#1632=COLOUR_RGB('Opaque(25,25,25)',0.0980392156862745,0.0980392156862745,
0.0980392156862745);
#1633=COLOUR_RGB('Opaque(160,160,160)',0.627450980392157,0.627450980392157,
0.627450980392157);
#1634=COLOUR_RGB('Opaque(244,229,167)',0.956862745098039,0.898039215686275,
0.654901960784314);
#1635=COLOUR_RGB('Opaque(246,246,243)',0.964705882352941,0.964705882352941,
0.952941176470588);
#1636=COLOUR_RGB('Opaque(247,224,153)',0.968627450980392,0.87843137254902,
0.6);
#1637=COLOUR_RGB('ABS (White)',0.913725490196078,0.623529411764706,0.266666666666667);
#1638=COLOUR_RGB('ABS (White)',0.72156862745098,0.0980392156862745,0.);
#1639=COLOUR_RGB('ABS (White)',0.788235294117647,0.752941176470588,0.752941176470588);
ENDSEC;
END-ISO-10303-21;
